<svg xmlns="http://www.w3.org/2000/svg" viewBox="0 0 960 620" role="img" aria-labelledby="titulo descripcion">
  <title id="titulo">Sin actividades disponibles</title>
  <desc id="descripcion">Un buque de guerra alejándose en el horizonte al atardecer sobre el mar.</desc>
  <defs>
    <linearGradient id="cielo" x1="0" x2="0" y1="0" y2="1">
      <stop offset="0%" stop-color="#53697d"/>
      <stop offset="100%" stop-color="#4a6075"/>
    </linearGradient>
    <linearGradient id="mar" x1="0" x2="0" y1="0" y2="1">
      <stop offset="0%" stop-color="#9fb8cb"/>
      <stop offset="100%" stop-color="#87a7be"/>
    </linearGradient>
    <linearGradient id="reflejo" x1="0" x2="0" y1="0" y2="1">
      <stop offset="0%" stop-color="#ffd773" stop-opacity="0.95"/>
      <stop offset="100%" stop-color="#ffd773" stop-opacity="0.35"/>
    </linearGradient>
    <linearGradient id="casco" x1="0" x2="0" y1="0" y2="1">
      <stop offset="0%" stop-color="#1d2542"/>
      <stop offset="100%" stop-color="#0d1128"/>
    </linearGradient>
    <linearGradient id="cascoLuz" x1="0" x2="1" y1="0" y2="1">
      <stop offset="0%" stop-color="#3f496c" stop-opacity="0.4"/>
      <stop offset="100%" stop-color="#0b1025" stop-opacity="0"/>
    </linearGradient>
  </defs>

  <rect width="960" height="620" fill="url(#cielo)"/>

  <circle cx="590" cy="134" r="48" fill="#ff9e2d"/>
  <path d="M518 148c35-5 65-7 96-6 34 1 65 5 100 11v17c-32 4-62 6-98 6-36 0-66-2-98-8z" fill="#50677c" opacity="0.45"/>
  <path d="M555 154c18 6 34 8 54 8 20 0 35-2 55-8v12c-13 4-22 7-22 13 0 6 17 9 17 16s-15 8-15 15 18 8 18 16-16 8-16 14 12 7 12 13c0 7-14 11-33 12-20 1-37-2-47-7 12-4 22-7 22-12 0-6-18-8-18-15s16-9 16-16-18-8-18-15 17-8 17-15-14-9-14-16 7-11 10-13z" fill="url(#reflejo)"/>

  <path d="M0 250c152-34 330-52 520-44 184 9 312 31 440 74v340H0z" fill="#58708a" opacity="0.42"/>
  <path d="M0 262c156-26 335-39 520-33 173 6 319 27 440 65v326H0z" fill="url(#mar)"/>
  <path d="M0 300c103-25 224-38 348-33 111 5 207 23 302 25 106 2 202-17 310-48v23c-88 23-170 42-271 43-111 1-198-16-302-23-121-8-242 2-387 35z" fill="#b7d1e1" opacity="0.25"/>

  <g transform="translate(478 345)">
    <path d="M-10 152c14-14 29-47 34-89l7-62h26l7 62c5 42 20 75 34 89-31 6-77 6-108 0z" fill="#2b3558" opacity="0.18"/>

    <path d="M-53 112 53 112 69 190 41 196-41 196-69 190z" fill="url(#casco)"/>
    <path d="M-36 74 36 74 53 112-53 112z" fill="url(#casco)"/>
    <path d="M-20 40 20 40 32 74-32 74z" fill="url(#casco)"/>
    <path d="M-12 10 12 10 20 40-20 40z" fill="url(#casco)"/>
    <path d="M-7 -18 7 -18 12 10-12 10z" fill="url(#casco)"/>

    <path d="M-53 112 0 96 53 112 69 190 41 196-41 196-69 190z" fill="url(#cascoLuz)"/>

    <path d="M-50 176h39l8-27h-41z" fill="none" stroke="#f3efe1" stroke-width="4" stroke-linejoin="round"/>
    <path d="M50 176H11l-8-27h41z" fill="none" stroke="#f3efe1" stroke-width="4" stroke-linejoin="round"/>
    <path d="M0 145v33" stroke="#f3efe1" stroke-width="4" stroke-linecap="round"/>

    <path d="M-2 -18v-39" stroke="#1b223f" stroke-width="5" stroke-linecap="round"/>
    <path d="M-26 -2h24" stroke="#1b223f" stroke-width="4" stroke-linecap="round"/>
    <path d="M2 -2h27" stroke="#1b223f" stroke-width="4" stroke-linecap="round"/>
    <path d="M-1 -53h18" stroke="#1b223f" stroke-width="3" stroke-linecap="round"/>
    <path d="M7 -53v18" stroke="#1b223f" stroke-width="3" stroke-linecap="round"/>
    <circle cx="-18" cy="30" r="6" fill="#2a3355"/>
    <circle cx="18" cy="30" r="6" fill="#2a3355"/>

    <path d="M26 -22h30v18H26z" fill="#ffd63c" stroke="#ff3d2e" stroke-width="2"/>
    <path d="M26 -22c8 4 12 4 18 0 7-4 10-4 12 0v18H26z" fill="#ff3d2e" opacity="0.92"/>
    <circle cx="42" cy="-13" r="4" fill="#8f1520" opacity="0.4"/>
  </g>

  <g opacity="0.38">
    <path d="M474 526c0-11 14-17 31-17s30 6 30 17-14 17-30 17-31-6-31-17z" fill="#4e718d"/>
    <path d="M478 544c0-10 13-15 27-15s27 5 27 15-12 16-27 16-27-6-27-16z" fill="#507893"/>
    <path d="M484 564c0-8 10-13 22-13s22 5 22 13-10 14-22 14-22-5-22-14z" fill="#507a96"/>
    <path d="M490 583c0-7 8-11 17-11s17 4 17 11-8 12-17 12-17-5-17-12z" fill="#53809d"/>
    <path d="M495 599c0-5 5-8 12-8s12 3 12 8-5 8-12 8-12-3-12-8z" fill="#5787a4"/>
  </g>
</svg>
