<?xml version="1.0" ?><svg xmlns="http://www.w3.org/2000/svg" xmlns:xlink="http://www.w3.org/1999/xlink" version="1.1" id="Layer_1" viewBox="0 0 100 100" style="enable-background:new 0 0 100 100;" xml:space="preserve"><style type="text/css">
	.st0{fill:#0F89DB;}
	.st1{fill:#FBB040;}
	.st2{fill:#005EB8;}
	.st3{fill:#ED8B00;}
	.st4{fill:#FFF7E8;}
</style><title/><g><g><g><path class="st0" d="M20,28.8L20,28.8c0-1.6,1.2-2.8,2.8-2.8h54.4c1.6,0,2.8,1.2,2.8,2.8l0,0c0,1.6-1.2,2.8-2.8,2.8H22.8     C21.2,31.6,20,30.3,20,28.8L20,28.8z"/><path class="st0" d="M20,50.1L20,50.1c0-1.6,1.2-2.8,2.8-2.8h54.4c1.6,0,2.8,1.2,2.8,2.8l0,0c0,1.6-1.2,2.8-2.8,2.8H22.8     C21.2,52.9,20,51.6,20,50.1L20,50.1z"/><path class="st0" d="M20,71.3L20,71.3c0-1.6,1.2-2.8,2.8-2.8h54.4c1.6,0,2.8,1.2,2.8,2.8l0,0c0,1.6-1.2,2.8-2.8,2.8H22.8     C21.2,74.1,20,72.9,20,71.3L20,71.3z"/></g><g><path class="st1" d="M50.9,32.8v-8.3c0-2.1,1.7-3.9,3.9-3.9h14.9c2.1,0,3.9,1.7,3.9,3.9v8.3c0,2.1-1.7,3.9-3.9,3.9H54.8     C52.7,36.7,50.9,34.9,50.9,32.8z"/></g><g><path class="st2" d="M26.7,54.1V46c0-2.1,1.7-3.9,3.9-3.9h14.9c2.1,0,3.9,1.7,3.9,3.9v8.3c0,2.1-1.7,3.9-3.9,3.9H30.4     C28.4,58,26.7,56.3,26.7,54.1L26.7,54.1z"/></g><g><path class="st3" d="M40.7,75.5v-8.3c0-2.1,1.7-3.9,3.9-3.9h14.8c2.1,0,3.9,1.7,3.9,3.9v8.3c0,2.1-1.7,3.9-3.9,3.9H44.4     C42.3,79.3,40.7,77.6,40.7,75.5z"/></g></g><g><g><path class="st4" d="M66.9,25.9v5.6c0,0.5,0.4,0.9,0.9,0.9s0.9-0.4,0.9-0.9v-5.6c0-0.5-0.4-0.9-0.9-0.9     C67.3,24.9,66.9,25.3,66.9,25.9z"/><path class="st4" d="M63.2,31.5v-5.6c0-0.5-0.4-0.9-0.9-0.9c-0.5,0-0.9,0.4-0.9,0.9v5.6c0,0.5,0.4,0.9,0.9,0.9     C62.8,32.4,63.2,32,63.2,31.5z"/><path class="st4" d="M57.6,31.5v-5.6c0-0.5-0.4-0.9-0.9-0.9c-0.5,0-0.9,0.4-0.9,0.9v5.6c0,0.5,0.4,0.9,0.9,0.9     C57.2,32.4,57.6,32,57.6,31.5z"/></g><g><path class="st4" d="M42.5,47.2v5.6c0,0.5,0.4,0.9,0.9,0.9c0.5,0,0.9-0.4,0.9-0.9v-5.6c0-0.5-0.4-0.9-0.9-0.9     C42.9,46.4,42.5,46.8,42.5,47.2z"/><path class="st4" d="M38.8,52.9v-5.6c0-0.5-0.4-0.9-0.9-0.9c-0.5,0-0.9,0.4-0.9,0.9v5.6c0,0.5,0.4,0.9,0.9,0.9     C38.4,53.7,38.8,53.3,38.8,52.9z"/><path class="st4" d="M33.2,52.9v-5.6c0-0.5-0.4-0.9-0.9-0.9c-0.5,0-0.9,0.4-0.9,0.9v5.6c0,0.5,0.4,0.9,0.9,0.9     C32.8,53.7,33.2,53.3,33.2,52.9z"/></g><g><path class="st4" d="M56.5,68.5v5.6c0,0.5,0.4,0.9,0.9,0.9c0.5,0,0.9-0.4,0.9-0.9v-5.6c0-0.5-0.4-0.9-0.9-0.9     C56.9,67.6,56.5,68,56.5,68.5z"/><path class="st4" d="M52.8,74.1v-5.6c0-0.5-0.4-0.9-0.9-0.9c-0.5,0-0.9,0.4-0.9,0.9v5.6c0,0.5,0.4,0.9,0.9,0.9     C52.4,75.1,52.8,74.7,52.8,74.1z"/><path class="st4" d="M47.2,74.1v-5.6c0-0.5-0.4-0.9-0.9-0.9c-0.5,0-0.9,0.4-0.9,0.9v5.6c0,0.5,0.4,0.9,0.9,0.9     S47.2,74.7,47.2,74.1z"/></g></g></g></svg>