<?xml version="1.0" encoding="UTF-8"?>
<svg version="1.1" xmlns="http://www.w3.org/2000/svg" width="512" height="512">
<path d="M0 0 C1.57007813 0.54333984 1.57007813 0.54333984 3.171875 1.09765625 C16.41716076 6.15900249 27.07719083 14.09146825 37 24 C37.74121094 24.72960937 38.48242188 25.45921875 39.24609375 26.2109375 C54.56804478 42.27957231 61.62178434 64.49584568 61.4375 86.3125 C61.42920166 87.58633545 61.42090332 88.8601709 61.41235352 90.17260742 C61.24090971 99.73746327 60.34101293 108.01178822 57 117 C56.75330566 117.66773438 56.50661133 118.33546875 56.25244141 119.0234375 C52.73884628 128.30674838 48.37973473 136.32530981 42 144 C41.27683594 144.87398437 40.55367187 145.74796875 39.80859375 146.6484375 C35.03480288 152.17773266 29.94206114 156.75767739 24 161 C24.59941406 161.23332031 25.19882812 161.46664062 25.81640625 161.70703125 C46.64781093 170.092931 66.51579797 179.54051289 82.97265625 195.09375 C85.10406746 197.15823626 85.10406746 197.15823626 88.0625 199.375 C104.06125895 213.67176331 113.59407814 233.43903131 118 254 C118 281.06 118 308.12 118 336 C20.65 336 -76.7 336 -177 336 C-177 246.38305085 -177 246.38305085 -170 233 C-169.56816406 232.12859375 -169.13632813 231.2571875 -168.69140625 230.359375 C-165.18599853 223.55755405 -160.98764872 217.78530578 -156 212 C-155.29875 211.17628906 -154.5975 210.35257813 -153.875 209.50390625 C-135.81911687 188.83636859 -112.8773512 175.41806134 -87.85253906 164.81860352 C-85.8673831 163.94139899 -83.93395245 162.98436788 -82 162 C-82.82242188 161.34515625 -83.64484375 160.6903125 -84.4921875 160.015625 C-102.593059 145.33283862 -116.49535139 125.98289015 -119.77294922 102.33447266 C-122.36373588 75.69672852 -117.80930371 51.30639425 -101.125 29.8125 C-99.76860238 28.1925737 -98.39371066 26.58793775 -97 25 C-96.34644531 24.25105469 -95.69289063 23.50210938 -95.01953125 22.73046875 C-85.17637792 12.18555215 -72.53102366 4.7686427 -59 0 C-57.85015625 -0.4125 -56.7003125 -0.825 -55.515625 -1.25 C-37.94862973 -6.58680869 -17.28706532 -6.13087782 0 0 Z M-84.3125 38.3125 C-97.1051665 53.72307504 -104.47337764 73.07584846 -102.61865234 93.20605469 C-100.53626201 110.67476397 -93.41512599 125.54456516 -81 138 C-80.5364209 138.51522217 -80.0728418 139.03044434 -79.59521484 139.5612793 C-74.34822825 145.20382763 -68.14137415 149.02434597 -61.625 153.0625 C-59.45005905 154.42764999 -57.27557202 155.79352345 -55.1015625 157.16015625 C-53.55130371 158.13299561 -53.55130371 158.13299561 -51.96972656 159.12548828 C-49.2261234 160.85726936 -46.49079028 162.59841625 -43.7734375 164.37109375 C-43.06364746 164.83314209 -42.35385742 165.29519043 -41.62255859 165.77124023 C-40 167 -40 167 -39 169 C-39.66612305 169.15057861 -40.33224609 169.30115723 -41.01855469 169.45629883 C-49.51230768 171.46974398 -57.72923429 174.09035219 -65.97998047 176.91381836 C-68.22894294 177.68032321 -70.48326536 178.42925788 -72.73828125 179.17773438 C-93.14653562 186.0673038 -111.29818291 196.41244255 -128 210 C-129.31291016 211.06154297 -129.31291016 211.06154297 -130.65234375 212.14453125 C-144.6275207 224.04440546 -154.54619563 239.18478251 -159 257 C-159 276.8 -159 296.6 -159 317 C-73.53 317 11.94 317 100 317 C102.59951621 255.96673418 102.59951621 255.96673418 74.875 212.5 C53.58951211 191.71778512 27.30034881 182.00020042 -0.625 173.5 C-1.36571747 173.27418243 -2.10643494 173.04836487 -2.86959839 172.81570435 C-4.98687345 172.17333013 -7.10613844 171.5381434 -9.2265625 170.90625 C-10.45971191 170.53822266 -11.69286133 170.17019531 -12.96337891 169.79101562 C-15.96086041 168.87396009 -15.96086041 168.87396009 -19 169 C-15.97990758 165.7601494 -12.79935377 163.39855772 -9.08984375 160.98828125 C-7.92249182 160.22205734 -6.75517531 159.45577947 -5.58789062 158.68945312 C-3.77509844 157.50757776 -1.96100297 156.32775339 -0.14575195 155.1496582 C19.38417775 142.44728672 35.41911351 128.14499552 41.9375 105 C46.04397163 85.13863393 43.36526992 65.85718224 32.75 48.3125 C21.36045318 31.43637579 5.68937362 19.98056892 -14.2890625 15.5234375 C-40.66371984 10.43092441 -65.95034065 18.88070029 -84.3125 38.3125 Z " fill="#3C3C3C" transform="translate(281,176)"/>
<path d="M0 0 C15.94839913 14.16257528 15.94839913 14.16257528 19.51171875 22.23046875 C18.15650298 26.29611607 15.47136704 27.36554725 11.94921875 29.41796875 C11.33369141 29.78599609 10.71816406 30.15402344 10.08398438 30.53320312 C8.56455766 31.44014775 7.03872842 32.33635043 5.51171875 33.23046875 C2.2509231 30.02115935 -0.85063976 26.73521074 -3.86328125 23.29296875 C-16.04960119 9.79028692 -33.4447318 -0.64830768 -52.02099609 -1.9465332 C-74.99337954 -2.47215474 -95.9275755 1.23829206 -113.48828125 17.23046875 C-114.24496094 17.90722656 -115.00164062 18.58398438 -115.78125 19.28125 C-130.28775027 32.96158443 -138.31428939 52.27340087 -138.96289062 72.08276367 C-139.05646982 82.07144334 -137.8484357 90.7669518 -134.48828125 100.23046875 C-133.94494141 101.81408203 -133.94494141 101.81408203 -133.390625 103.4296875 C-130.55426274 110.9388364 -126.50385932 117.00098905 -121.48828125 123.23046875 C-120.89402344 124.00132812 -120.29976563 124.7721875 -119.6875 125.56640625 C-112.24930742 134.64514237 -101.90006855 140.9251074 -91.96484375 146.9765625 C-91.47757812 147.39035156 -90.9903125 147.80414063 -90.48828125 148.23046875 C-90.48828125 149.22046875 -90.48828125 150.21046875 -90.48828125 151.23046875 C-91.54402344 151.5389978 -91.54402344 151.5389978 -92.62109375 151.85375977 C-127.83853258 162.21842212 -164.28874606 177.52623928 -183.69140625 210.8984375 C-191.43048457 225.24938056 -193.92273866 239.38473784 -194 255.59765625 C-194.01663696 256.84168213 -194.03327393 258.08570801 -194.05041504 259.36743164 C-194.1075814 263.94661119 -194.14030784 268.52606977 -194.17578125 273.10546875 C-194.27890625 283.37671875 -194.38203125 293.64796875 -194.48828125 304.23046875 C-170.72828125 304.23046875 -146.96828125 304.23046875 -122.48828125 304.23046875 C-122.48828125 310.50046875 -122.48828125 316.77046875 -122.48828125 323.23046875 C-151.85828125 323.23046875 -181.22828125 323.23046875 -211.48828125 323.23046875 C-211.57078125 308.71046875 -211.65328125 294.19046875 -211.73828125 279.23046875 C-211.77469727 274.6775 -211.81111328 270.12453125 -211.84863281 265.43359375 C-211.86669922 259.79296875 -211.86669922 259.79296875 -211.87005615 257.13671875 C-211.87612337 255.31571521 -211.89003187 253.4947258 -211.9105835 251.67382812 C-212.07225247 236.56997722 -210.77070452 222.52676029 -203.98828125 208.73046875 C-203.65062744 208.03453613 -203.31297363 207.33860352 -202.96508789 206.62158203 C-187.54724371 176.22473825 -159.2423122 157.60031324 -129.48828125 143.23046875 C-130.18953125 142.45445312 -130.89078125 141.6784375 -131.61328125 140.87890625 C-150.6748333 119.35290522 -159.08291432 93.92795801 -157.48828125 65.23046875 C-155.18394219 39.83264474 -142.96343771 16.15375756 -123.41699219 -0.25268555 C-87.57186531 -28.90566765 -35.55791785 -29.60296865 0 0 Z " fill="#3C3C3C" transform="translate(214.48828125,131.76953125)"/>
<path d="M0 0 C2.53188468 2.23675701 4.98212958 4.53839829 7.421875 6.875 C8.18371094 7.56207031 8.94554687 8.24914062 9.73046875 8.95703125 C26.73410946 24.84084813 35.57215385 48.70687164 36.58984375 71.6640625 C36.73557431 100.28554382 27.70096776 123.83015856 8.421875 144.875 C8.96489258 145.13603516 9.50791016 145.39707031 10.06738281 145.66601562 C20.6637435 150.78706679 30.91614346 155.88160246 40.421875 162.875 C41.20433594 163.44734375 41.98679687 164.0196875 42.79296875 164.609375 C48.63758688 169.02575889 54.06058391 173.88917392 59.421875 178.875 C60.08960938 179.47699219 60.75734375 180.07898438 61.4453125 180.69921875 C70.36809066 189.09391412 77.54020078 199.30717968 82.859375 210.3125 C83.16488281 210.9305249 83.47039062 211.5485498 83.78515625 212.18530273 C90.31540866 226.50454259 90.98672521 240.68844506 90.8125 256.125 C90.80659995 257.89582818 90.80253093 259.66666341 90.80029297 261.4375 C90.77954044 267.91677483 90.7236968 274.39589917 90.671875 280.875 C90.589375 295.395 90.506875 309.915 90.421875 324.875 C61.051875 324.875 31.681875 324.875 1.421875 324.875 C1.421875 318.605 1.421875 312.335 1.421875 305.875 C25.181875 305.875 48.941875 305.875 73.421875 305.875 C73.298125 295.913125 73.174375 285.95125 73.046875 275.6875 C73.01287598 272.56901611 72.97887695 269.45053223 72.94384766 266.23754883 C72.9085965 263.7273661 72.87267034 261.21719273 72.8359375 258.70703125 C72.82457764 257.43484741 72.81321777 256.16266357 72.80151367 254.85192871 C72.40658901 230.10252335 64.55277742 211.5015524 47.421875 193.875 C46.82246094 193.21371094 46.22304688 192.55242187 45.60546875 191.87109375 C25.98946757 170.89934303 -3.12921289 159.3702584 -30.578125 152.875 C-30.20762628 150.35996749 -29.91064948 149.16731644 -27.97094727 147.4621582 C-26.94312134 146.82540161 -26.94312134 146.82540161 -25.89453125 146.17578125 C-25.13648193 145.69375244 -24.37843262 145.21172363 -23.59741211 144.71508789 C-22.78667236 144.21098389 -21.97593262 143.70687988 -21.140625 143.1875 C-1.49537827 130.47269721 10.51307543 114.69918659 16.421875 91.875 C20.7391468 71.34651555 15.97947617 51.58977921 5.421875 33.875 C3.3030092 30.63548963 1.02646519 27.73505106 -1.578125 24.875 C-2.25488281 24.11832031 -2.93164062 23.36164063 -3.62890625 22.58203125 C-16.47325319 8.96200439 -34.52426804 0.41945105 -53.20703125 -0.44140625 C-76.54823056 -1.09619542 -96.63167265 5.01556237 -113.94140625 21.06640625 C-118.38603329 25.36554632 -122.17444662 29.71458439 -125.578125 34.875 C-129.46819273 33.48719205 -132.54371208 31.6597773 -135.890625 29.25 C-136.77363281 28.61835938 -137.65664063 27.98671875 -138.56640625 27.3359375 C-139.23027344 26.85382813 -139.89414062 26.37171875 -140.578125 25.875 C-138.77321045 15.28616796 -124.64597765 3.39297564 -116.08203125 -2.7109375 C-81.31317291 -26.20508578 -33.13824027 -27.31394349 0 0 Z " fill="#3C3C3C" transform="translate(417.578125,130.125)"/>
<path d="M0 0 C0.99 0.33 1.98 0.66 3 1 C-1.95 5.95 -6.9 10.9 -12 16 C-12.66 15.67 -13.32 15.34 -14 15 C-12.23000902 13.06172464 -10.45904239 11.12435656 -8.6875 9.1875 C-8.18798828 8.64029297 -7.68847656 8.09308594 -7.17382812 7.52929688 C-4.83056872 4.96878163 -2.48855146 2.42060466 0 0 Z " fill="#323232" transform="translate(138,374)"/>
</svg>
