<svg id="Layer_1" data-name="Layer 1" xmlns="http://www.w3.org/2000/svg" viewBox="0 0 94 94"><path d="M45.46,71.17H8.94a7.7,7.7,0,0,1-7.69-7.69V21.59A7.7,7.7,0,0,1,8.94,13.9H72.06a7.7,7.7,0,0,1,7.69,7.69v20a.75.75,0,0,1-1.5,0v-20a6.2,6.2,0,0,0-6.19-6.19H8.94a6.2,6.2,0,0,0-6.19,6.19V63.48a6.2,6.2,0,0,0,6.19,6.19H45.46a.75.75,0,0,1,0,1.5Z"/><path d="M79,28.6H2a.75.75,0,0,1,0-1.5H79a.75.75,0,0,1,0,1.5Z"/><path d="M40,22.43c-2.19,0-3.84-3.42-3.84-8s1.65-8,3.84-8,3.84,3.42,3.84,8a.75.75,0,0,1-1.5,0C42.34,10.53,41,8,40,8s-2.34,2.52-2.34,6.46,1.39,6.46,2.34,6.46a.75.75,0,0,1,0,1.5Z"/><path d="M18.59,22.43c-2.19,0-3.84-3.42-3.84-8s1.65-8,3.84-8,3.84,3.42,3.84,8a.75.75,0,0,1-1.5,0c0-3.94-1.38-6.46-2.34-6.46s-2.34,2.52-2.34,6.46,1.39,6.46,2.34,6.46a.75.75,0,0,1,0,1.5Z"/><path d="M61.41,22.43c-2.19,0-3.84-3.42-3.84-8s1.65-8,3.84-8,3.84,3.42,3.84,8a.75.75,0,0,1-1.5,0c0-3.94-1.39-6.46-2.34-6.46s-2.34,2.52-2.34,6.46,1.38,6.46,2.34,6.46a.75.75,0,0,1,0,1.5Z"/><path d="M23.48,44.38H16.05a2.26,2.26,0,0,1-2.26-2.25V36a2.26,2.26,0,0,1,2.26-2.26h7.43A2.26,2.26,0,0,1,25.73,36v6.14A2.25,2.25,0,0,1,23.48,44.38Zm-7.43-9.15a.76.76,0,0,0-.76.76v6.14a.76.76,0,0,0,.76.75h7.43a.76.76,0,0,0,.75-.75V36a.76.76,0,0,0-.75-.76Z"/><path d="M44.65,44.38H37.22A2.26,2.26,0,0,1,35,42.13V36a2.27,2.27,0,0,1,2.26-2.26h7.43A2.26,2.26,0,0,1,46.9,36v6.14A2.25,2.25,0,0,1,44.65,44.38Zm-7.43-9.15a.76.76,0,0,0-.76.76v6.14a.76.76,0,0,0,.76.75h7.43a.75.75,0,0,0,.75-.75V36a.75.75,0,0,0-.75-.76Z"/><path d="M23.48,62.32H16.05a2.26,2.26,0,0,1-2.26-2.25V53.93a2.26,2.26,0,0,1,2.26-2.26h7.43a2.26,2.26,0,0,1,2.25,2.26v6.14A2.25,2.25,0,0,1,23.48,62.32Zm-7.43-9.15a.76.76,0,0,0-.76.76v6.14a.76.76,0,0,0,.76.75h7.43a.76.76,0,0,0,.75-.75V53.93a.76.76,0,0,0-.75-.76Z"/><path d="M44.28,62.32H37.22A2.26,2.26,0,0,1,35,60.07V53.93a2.27,2.27,0,0,1,2.26-2.26h7.43a2.25,2.25,0,0,1,2.19,1.74.74.74,0,0,1-.55.9.75.75,0,0,1-.91-.55.75.75,0,0,0-.73-.59H37.22a.76.76,0,0,0-.76.76v6.14a.76.76,0,0,0,.76.75h7.06a.75.75,0,0,1,0,1.5Z"/><path d="M68.12,84.31A21.45,21.45,0,1,1,89.57,62.86,21.47,21.47,0,0,1,68.12,84.31Zm0-41.4a20,20,0,1,0,19.95,20A20,20,0,0,0,68.12,42.91Z"/><path d="M68.12,87.49A24.63,24.63,0,1,1,92.75,62.86,24.66,24.66,0,0,1,68.12,87.49Zm0-47.76A23.13,23.13,0,1,0,91.25,62.86,23.16,23.16,0,0,0,68.12,39.73Z"/><path d="M68.12,49.32a.76.76,0,0,1-.75-.75V45.71a.75.75,0,0,1,1.5,0v2.86A.75.75,0,0,1,68.12,49.32Z"/><path d="M53.83,63.61H51a.75.75,0,0,1,0-1.5h2.86a.75.75,0,0,1,0,1.5Z"/><path d="M68.12,80.76a.75.75,0,0,1-.75-.75V77.16a.75.75,0,0,1,1.5,0V80A.74.74,0,0,1,68.12,80.76Z"/><path d="M85.27,63.61H82.42a.75.75,0,0,1,0-1.5h2.85a.75.75,0,0,1,0,1.5Z"/><path d="M66.35,65.09A.75.75,0,0,1,66,63.7L76.7,57.19a.75.75,0,0,1,.78,1.29L66.74,65A.72.72,0,0,1,66.35,65.09Z"/><path d="M69.6,65.68a.73.73,0,0,1-.63-.35l-9.56-15a.75.75,0,0,1,1.26-.81l9.56,15a.74.74,0,0,1-.23,1A.72.72,0,0,1,69.6,65.68Z"/><path d="M68.12,39.73a.75.75,0,0,1-.75-.75v-4.5a.75.75,0,1,1,1.5,0V39A.74.74,0,0,1,68.12,39.73Z"/><path d="M71.8,35.23H64.44a.75.75,0,0,1,0-1.5H71.8a.75.75,0,0,1,0,1.5Z"/></svg>