<svg xmlns="http://www.w3.org/2000/svg" width="512" height="512" viewBox="0 0 512 512">
<g>
<path d="M 382.73 510.46 C378.09,511.71 385.05,511.88 444.75,511.93 L 512.00 512.00 L 0.00 512.00 L 0.00 0.00 L 512.00 0.00 L 487.75 0.12 C470.53,0.20 464.99,0.48 468.65,1.09 C480.53,3.08 490.77,8.62 498.63,17.33 C503.74,22.99 509.70,34.35 510.65,40.25 C510.98,42.31 511.42,44.00 511.63,44.00 C511.83,44.00 512.00,34.10 512.00,22.00 L 512.00 85.62 L 509.96 87.81 C507.94,89.98 507.57,90.00 475.40,90.00 C456.48,90.00 442.12,89.60 441.07,89.04 C436.18,86.42 436.49,77.90 441.55,75.98 C443.00,75.43 455.68,75.00 470.57,75.00 L 497.00 75.00 L 497.00 60.68 C497.00,44.35 495.81,38.86 490.66,31.34 C483.60,21.06 472.96,15.60 460.00,15.60 C446.76,15.60 436.19,21.16 428.77,32.04 C422.33,41.49 422.00,44.31 422.00,90.19 L 422.00 130.96 L 416.50 136.18 C413.48,139.04 411.00,141.87 411.00,142.45 C411.00,143.03 413.48,145.90 416.50,148.82 L 422.00 154.13 L 422.00 357.87 L 416.50 363.18 C413.48,366.10 411.00,368.97 411.00,369.55 C411.00,370.13 413.48,372.96 416.50,375.82 L 422.00 381.04 L 422.00 423.81 C422.00,458.99 421.73,467.62 420.47,472.46 C415.73,490.64 400.91,505.56 382.73,510.46 ZM 359.32 495.62 C366.34,497.91 378.59,496.92 385.60,493.50 C393.11,489.82 399.83,483.09 403.56,475.49 L 406.50 469.50 L 406.79 428.57 L 407.09 387.64 L 400.66 381.07 C389.84,370.02 389.80,368.62 400.07,358.43 L 407.00 351.55 L 407.00 160.45 L 400.07 153.57 C396.26,149.79 392.87,145.63 392.55,144.34 C391.72,141.03 393.90,137.43 400.92,130.53 L 407.00 124.56 L 407.00 88.22 C407.00,66.78 407.45,48.94 408.10,44.69 C409.44,35.93 414.43,24.75 419.48,19.15 L 423.23 15.00 L 282.25 15.00 C191.07,15.00 139.38,15.36 135.92,16.01 C125.35,18.02 115.74,24.64 110.56,33.50 C105.88,41.48 105.00,47.48 105.01,71.46 L 105.01 93.50 L 112.51 101.23 C119.01,107.93 120.00,109.43 120.00,112.55 C120.00,115.73 119.13,116.98 112.50,123.26 L 105.00 130.37 L 105.00 153.28 L 112.50 161.13 C122.52,171.62 122.52,172.69 112.47,183.50 L 105.03 191.50 L 105.01 271.16 L 105.00 350.83 L 112.50 358.40 C122.56,368.56 122.55,369.71 112.46,380.40 L 105.00 388.29 L 105.00 395.33 C105.00,401.18 104.63,402.76 102.83,404.69 C99.24,408.50 93.88,407.41 91.16,402.32 C89.50,399.19 89.68,384.52 91.42,381.20 C92.20,379.72 94.89,376.50 97.40,374.07 L 101.95 369.63 L 96.53 363.94 C93.54,360.82 90.84,357.19 90.52,355.88 C90.20,354.57 90.06,315.37 90.22,268.76 L 90.50 184.02 L 96.24 178.28 L 101.98 172.54 L 90.50 160.94 L 90.50 124.02 L 101.98 112.54 L 90.50 100.94 L 90.18 76.72 C89.80,48.61 90.71,40.74 95.57,30.18 C102.15,15.87 118.61,3.30 133.66,1.10 C137.25,0.57 112.70,0.20 69.75,0.12 L 0.00 0.00 L 0.03 213.75 C0.06,381.98 0.32,427.16 1.28,425.91 C4.27,422.02 4.76,422.00 80.52,422.00 L 154.17 422.00 L 160.35 427.93 L 166.53 433.86 L 172.66 427.93 L 178.80 422.00 L 252.77 422.00 C326.08,422.00 326.75,422.02 329.37,424.07 L 332.00 426.15 L 332.00 444.36 C332.00,464.16 333.08,470.87 337.46,478.34 C341.89,485.89 350.59,492.76 359.32,495.62 ZM 42.32 495.56 C45.67,496.61 74.85,496.88 189.81,496.93 L 333.12 497.00 L 329.11 492.24 C324.01,486.20 319.57,476.36 318.13,467.92 C317.51,464.30 317.00,455.86 317.00,449.17 L 317.00 437.00 L 184.64 437.00 L 176.94 444.50 C171.16,450.12 168.55,452.00 166.50,452.00 C164.45,452.00 161.84,450.12 156.06,444.50 L 148.36 437.00 L 15.00 437.00 L 15.00 449.79 C15.00,463.86 16.47,471.53 20.46,478.34 C24.91,485.94 33.72,492.87 42.32,495.56 ZM 0.08 487.75 L 0.00 512.00 L 22.75 511.93 C44.18,511.87 45.20,511.79 40.27,510.46 C20.89,505.24 5.78,489.41 1.54,469.87 C0.22,463.79 0.16,464.61 0.08,487.75 Z" fill="rgb(0,0,0)"/>
<path d="M 0.20 471.39 C0.34,464.84 0.67,465.84 1.54,469.87 C3.40,478.44 7.35,486.30 12.84,492.86 C7.74,487.08 4.78,481.51 2.52,473.71 C1.60,470.57 0.67,468.00 0.43,468.00 C0.35,468.00 0.27,469.24 0.20,471.39 ZM 510.65 40.25 C510.02,36.36 507.21,30.09 503.91,24.65 C507.34,30.02 509.94,35.84 510.65,40.25 ZM 125.74 3.14 C127.57,2.46 129.41,1.89 131.27,1.44 C132.54,1.13 132.60,0.89 130.65,0.71 C133.56,0.83 134.62,0.96 133.66,1.10 C131.04,1.48 128.38,2.18 125.74,3.14 ZM 115.89 8.01 C107.16,13.48 99.56,21.51 95.57,30.18 C99.58,21.46 107.04,13.52 115.89,8.01 ZM 470.73 1.48 C470.04,1.34 469.35,1.21 468.65,1.09 C467.71,0.94 467.38,0.80 467.70,0.69 Z" fill="rgb(86,86,86)"/>
<path d="M 470.73 1.48 L 467.70 0.69 C467.85,0.63 468.17,0.58 468.64,0.53 L 474.17 2.30 C473.04,2.00 471.90,1.72 470.73,1.48 ZM 90.30 55.16 C90.45,50.59 90.70,47.10 91.03,45.00 C91.56,41.59 92.39,38.31 93.51,35.18 C91.62,40.51 90.67,46.11 90.30,55.16 ZM 101.38 20.85 C105.40,15.68 110.44,11.25 116.34,7.73 C116.19,7.82 116.04,7.92 115.89,8.01 L 115.89 8.01 C110.33,11.47 105.33,15.88 101.38,20.85 ZM 128.39 2.23 L 132.08 0.96 C132.36,1.09 132.03,1.25 131.27,1.44 C130.31,1.67 129.35,1.94 128.39,2.23 ZM 491.23 10.58 C488.66,8.66 485.93,7.01 483.04,5.61 C486.12,7.02 488.68,8.58 491.23,10.58 Z" fill="rgb(164,164,164)"/>
<path d="M 0.00 490.00 C0.00,477.90 0.19,468.00 0.43,468.00 C0.67,468.00 1.60,470.57 2.52,473.71 C5.20,482.95 8.86,489.07 15.90,496.11 C22.91,503.12 31.25,508.03 40.27,510.46 C45.20,511.79 44.18,511.87 22.75,511.93 L 0.00 512.00 L 0.00 490.00 ZM 382.73 510.46 C400.91,505.56 415.73,490.64 420.47,472.46 C421.73,467.62 422.00,458.99 422.00,423.81 L 422.00 381.04 L 416.50 375.82 C413.48,372.96 411.00,370.13 411.00,369.55 C411.00,368.97 413.48,366.10 416.50,363.18 L 422.00 357.87 L 422.00 256.00 L 422.00 154.13 L 416.50 148.82 C413.48,145.90 411.00,143.03 411.00,142.45 C411.00,141.87 413.48,139.04 416.50,136.18 L 422.00 130.96 L 422.00 90.19 C422.00,44.31 422.33,41.49 428.77,32.04 C436.19,21.16 446.76,15.60 460.00,15.60 C472.96,15.60 483.60,21.06 490.66,31.34 C495.81,38.86 497.00,44.35 497.00,60.68 L 497.00 75.00 L 470.57 75.00 C455.68,75.00 443.00,75.43 441.55,75.98 C436.49,77.90 436.18,86.42 441.07,89.04 C442.12,89.60 456.48,90.00 475.40,90.00 C507.57,90.00 507.94,89.98 509.96,87.81 L 512.00 85.62 L 512.00 298.81 L 512.00 512.00 L 444.75 511.93 C385.05,511.88 378.09,511.71 382.73,510.46 ZM 42.32 495.56 C33.72,492.87 24.91,485.94 20.46,478.34 C16.47,471.53 15.00,463.86 15.00,449.79 L 15.00 437.00 L 81.68 437.00 L 148.36 437.00 L 156.06 444.50 C161.84,450.12 164.45,452.00 166.50,452.00 C168.55,452.00 171.16,450.12 176.94,444.50 L 184.64 437.00 L 250.82 437.00 L 317.00 437.00 L 317.00 449.17 C317.00,455.86 317.51,464.30 318.13,467.92 C319.57,476.36 324.01,486.20 329.11,492.24 L 333.12 497.00 L 189.81 496.93 C74.85,496.88 45.67,496.61 42.32,495.56 ZM 359.32 495.62 C350.59,492.76 341.89,485.89 337.46,478.34 C333.08,470.87 332.00,464.16 332.00,444.36 L 332.00 426.15 L 329.37 424.07 C326.75,422.02 326.08,422.00 252.77,422.00 L 178.80 422.00 L 172.66 427.93 L 166.53 433.86 L 160.35 427.93 L 154.17 422.00 L 80.52 422.00 C4.76,422.00 4.27,422.02 1.28,425.91 C0.32,427.16 0.06,381.98 0.03,213.75 L 0.00 0.00 L 67.25 0.06 L 134.50 0.12 L 127.68 2.48 C107.62,9.43 94.15,25.05 91.03,45.00 C90.29,49.73 89.97,61.46 90.18,76.72 L 90.50 100.94 L 96.24 106.74 L 101.98 112.54 L 96.24 118.28 L 90.50 124.02 L 90.50 142.48 L 90.50 160.94 L 96.24 166.74 L 101.98 172.54 L 96.24 178.28 L 90.50 184.02 L 90.22 268.76 C90.06,315.37 90.20,354.57 90.52,355.88 C90.84,357.19 93.54,360.82 96.53,363.94 L 101.95 369.63 L 97.40 374.07 C94.89,376.50 92.20,379.72 91.42,381.20 C89.68,384.52 89.50,399.19 91.16,402.32 C93.88,407.41 99.24,408.50 102.83,404.69 C104.63,402.76 105.00,401.18 105.00,395.33 L 105.00 388.29 L 112.46 380.40 C122.55,369.71 122.56,368.56 112.50,358.40 L 105.00 350.83 L 105.01 271.16 L 105.03 191.50 L 112.47 183.50 C122.52,172.69 122.52,171.62 112.50,161.13 L 105.00 153.28 L 105.00 141.82 L 105.00 130.37 L 112.50 123.26 C119.13,116.98 120.00,115.73 120.00,112.55 C120.00,109.43 119.01,107.93 112.51,101.23 L 105.01 93.50 L 105.01 71.46 C105.00,47.48 105.88,41.48 110.56,33.50 C115.74,24.64 125.35,18.02 135.92,16.01 C139.38,15.36 191.07,15.00 282.25,15.00 L 423.23 15.00 L 419.48 19.15 C414.43,24.75 409.44,35.93 408.10,44.69 C407.45,48.94 407.00,66.78 407.00,88.22 L 407.00 124.56 L 400.92 130.53 C393.90,137.43 391.72,141.03 392.55,144.34 C392.87,145.63 396.26,149.79 400.07,153.57 L 407.00 160.45 L 407.00 256.00 L 407.00 351.55 L 400.07 358.43 C389.80,368.62 389.84,370.02 400.66,381.07 L 407.09 387.64 L 406.79 428.57 L 406.50 469.50 L 403.56 475.49 C399.83,483.09 393.11,489.82 385.60,493.50 C378.59,496.92 366.34,497.91 359.32,495.62 ZM 510.65 40.25 C509.49,33.08 503.33,22.14 496.72,15.54 C489.81,8.63 484.99,5.78 474.50,2.41 L 467.50 0.16 L 489.75 0.08 L 512.00 0.00 L 512.00 22.00 C512.00,34.10 511.83,44.00 511.63,44.00 C511.42,44.00 510.98,42.31 510.65,40.25 Z" fill="rgb(254,254,254)"/>
</g>
</svg>