<?xml version="1.0" standalone="no"?>
<!DOCTYPE svg PUBLIC "-//W3C//DTD SVG 20010904//EN"
 "http://www.w3.org/TR/2001/REC-SVG-20010904/DTD/svg10.dtd">
<svg version="1.0" xmlns="http://www.w3.org/2000/svg"
 width="642.000000pt" height="730.000000pt" viewBox="0 0 642.000000 730.000000"
 preserveAspectRatio="xMidYMid meet">
<g transform="translate(0.000000,730.000000) scale(0.100000,-0.100000)"
fill="#000000" stroke="none">
<path d="M3098 6909 c-10 -5 -18 -18 -18 -29 0 -13 -8 -20 -27 -22 -22 -2 -29
-9 -31 -30 -3 -23 2 -30 32 -42 32 -14 36 -19 36 -53 -1 -40 -18 -67 -62 -96
-21 -13 -28 -25 -28 -50 0 -43 24 -77 41 -59 7 6 36 12 65 12 33 0 54 5 57 13
4 10 6 10 6 0 1 -7 10 -13 20 -13 11 0 23 -4 26 -10 16 -26 55 9 55 49 0 39
-58 90 -73 64 -2 -5 -2 -2 0 5 1 8 -3 22 -10 33 -20 28 -8 93 18 97 31 6 44
21 42 50 -2 21 -9 28 -32 32 -21 4 -31 12 -35 30 -4 19 -13 26 -35 27 -17 2
-38 -2 -47 -8z m63 -306 c6 -6 25 -13 42 -15 38 -5 23 -12 -48 -24 -91 -16
-125 4 -65 38 26 15 30 23 30 58 0 23 6 51 13 63 11 20 12 15 15 -43 2 -35 8
-70 13 -77z m-81 32 c0 -8 -7 -15 -15 -15 -16 0 -20 12 -8 23 11 12 23 8 23
-8z"/>
<path d="M2660 6529 c0 -18 2 -19 15 -9 18 15 30 7 22 -15 -6 -14 -32 -20 -65
-16 -7 1 -15 -5 -18 -14 -8 -19 -44 -20 -44 0 0 7 8 19 18 24 14 9 15 10 1 11
-20 0 -49 -31 -49 -53 0 -27 -45 -67 -76 -68 -22 0 -25 -2 -11 -8 10 -4 17
-11 15 -16 -4 -12 -88 -14 -88 -2 0 11 -55 8 -68 -5 -8 -8 -15 -8 -26 1 -11 9
-29 10 -76 1 -48 -9 -65 -8 -77 1 -12 11 -17 10 -24 -4 -13 -22 -64 -24 -55
-2 3 8 1 15 -4 15 -6 0 -10 -11 -10 -25 0 -14 -6 -25 -12 -25 -7 0 -24 -3 -38
-6 -21 -6 -23 -4 -12 7 16 17 15 29 -2 29 -13 0 -28 -36 -30 -74 -1 -18 -14
-29 -49 -40 -9 -3 -22 -17 -27 -31 -14 -36 -37 -31 -31 8 2 10 -17 9 -24 -3
-3 -5 -1 -18 4 -29 8 -14 7 -20 -4 -25 -8 -3 -15 -12 -15 -20 0 -8 -13 -22
-28 -32 -22 -12 -28 -22 -24 -40 5 -25 -7 -31 -24 -14 -7 7 -9 1 -6 -19 2 -18
11 -31 23 -34 25 -7 25 -37 0 -37 -41 0 -33 -36 9 -41 19 -3 24 0 22 14 -2 9
2 17 8 17 5 0 10 -8 10 -18 0 -11 10 -27 22 -38 21 -19 21 -19 14 1 -21 52
-25 93 -15 142 6 29 15 55 20 58 5 4 9 15 9 26 0 10 4 19 9 19 5 0 3 -28 -5
-62 -8 -35 -12 -74 -8 -88 5 -21 9 -16 21 35 7 33 23 74 35 91 25 36 131 111
186 131 75 28 93 31 202 38 61 4 113 12 116 16 8 14 34 10 34 -5 0 -7 -7 -19
-16 -26 -11 -10 -14 -23 -9 -52 5 -28 3 -39 -8 -44 -12 -4 -12 -10 -3 -30 6
-13 14 -24 19 -24 4 0 10 -1 14 -2 4 -2 8 28 9 66 1 38 6 71 12 75 6 3 14 19
17 34 4 16 18 33 31 39 13 6 24 17 24 24 0 14 38 39 47 30 3 -3 -10 -20 -28
-39 -71 -72 -80 -90 -74 -154 3 -32 6 -66 6 -75 1 -34 19 -28 19 6 0 53 20
135 41 171 13 22 44 46 92 71 65 34 81 38 162 42 102 5 200 -10 226 -34 15
-14 21 -14 34 -4 10 8 12 17 6 24 -10 12 -7 19 27 75 11 17 10 21 -1 21 -8 0
-20 -7 -27 -15 -16 -19 -49 -19 -56 0 -4 8 -11 12 -18 7 -14 -9 -76 -9 -76 0
0 4 -12 11 -27 14 -16 4 -33 14 -40 23 -10 14 -13 14 -30 -2 -26 -23 -53 -22
-53 2 0 14 -5 18 -19 14 -10 -3 -22 0 -25 6 -13 20 -46 13 -46 -10z"/>
<path d="M3620 6520 c0 -5 7 -10 15 -10 8 0 15 5 15 10 0 6 -7 10 -15 10 -8 0
-15 -4 -15 -10z"/>
<path d="M3560 6488 c-15 -19 -17 -19 -32 -4 -21 21 -37 20 -61 -1 -18 -17
-19 -17 -32 1 -15 21 -55 14 -55 -10 0 -19 -26 -18 -34 1 -7 20 -36 8 -36 -15
0 -26 -14 -32 -43 -21 -18 7 -30 6 -43 -4 -25 -19 -31 -18 -38 3 -3 9 -3 4 0
-13 3 -16 5 -57 4 -90 -1 -75 10 -169 18 -160 4 3 7 14 7 23 4 59 7 76 12 65
11 -30 23 -9 23 42 0 50 2 56 29 69 36 19 226 39 294 30 30 -4 79 -21 117 -41
91 -50 115 -86 126 -193 6 -65 8 -69 19 -46 8 14 12 33 11 43 -2 10 -1 12 1 6
3 -7 11 -13 19 -13 8 0 14 -9 14 -20 0 -11 5 -20 10 -20 6 0 10 9 10 20 0 11
-4 20 -10 20 -18 0 -11 32 8 37 25 6 18 46 -11 58 -28 13 -34 35 -9 35 10 0
22 -3 25 -7 4 -3 51 -7 105 -8 53 -1 126 -10 162 -19 144 -37 277 -131 299
-211 14 -51 14 -105 1 -105 -6 0 -41 17 -78 38 -132 75 -241 109 -372 115 -65
3 -78 1 -98 -17 -19 -17 -26 -18 -42 -8 -17 11 -20 10 -20 -7 0 -11 5 -23 10
-26 17 -10 11 -45 -7 -46 -24 -2 -25 -2 -45 6 -14 5 -18 2 -18 -14 0 -12 6
-21 14 -21 16 0 26 -21 26 -58 0 -20 3 -23 12 -14 7 7 22 12 35 12 32 0 32 45
1 55 -22 7 -22 7 -3 12 11 3 25 9 31 14 16 13 191 4 209 -11 12 -10 18 -10 30
0 13 11 26 7 75 -19 33 -17 69 -31 79 -31 45 0 75 -118 37 -145 -9 -7 -16 -16
-16 -22 0 -5 -10 -20 -21 -32 -18 -19 -19 -25 -8 -32 11 -7 11 -9 -3 -9 -10 0
-19 -11 -22 -27 -7 -30 -47 -56 -73 -46 -21 8 -13 -17 10 -31 32 -20 67 13
118 109 47 90 82 124 115 111 8 -3 14 -16 14 -29 0 -14 7 -30 15 -37 9 -7 13
-21 10 -31 -4 -13 -1 -19 9 -19 9 0 16 4 16 8 0 5 29 32 65 62 36 30 65 57 65
62 0 17 -51 20 -69 4 -10 -9 -25 -14 -34 -10 -11 4 -16 -1 -19 -18 -4 -29 -21
-27 -28 4 -3 13 -18 29 -33 36 -34 17 -34 24 4 77 28 39 34 61 39 145 0 9 7 4
15 -11 14 -26 15 -85 1 -108 -4 -6 -5 -15 -1 -20 3 -5 1 -12 -5 -16 -19 -12
-10 -22 15 -17 21 3 24 9 20 31 -3 14 -2 20 1 14 9 -20 41 -15 47 7 4 17 2 20
-14 15 -15 -5 -19 -1 -19 14 0 14 6 21 19 21 26 0 37 58 15 79 -15 15 -15 14
-5 -6 15 -30 14 -33 -10 -33 -19 0 -21 5 -17 53 3 52 3 52 -35 71 -25 12 -36
23 -33 32 6 17 -6 18 -21 3 -8 -8 -17 0 -31 32 -11 24 -21 36 -21 27 -1 -11
-9 -18 -21 -18 -15 0 -20 7 -20 25 0 14 -4 25 -10 25 -5 0 -10 8 -10 18 0 19
-18 42 -33 42 -5 0 -4 -7 3 -14 8 -10 8 -21 2 -32 -9 -16 -10 -15 -16 4 -4 11
-16 24 -27 27 -10 4 -19 13 -19 20 0 8 -4 16 -9 19 -5 4 -7 -2 -4 -13 7 -26
-17 -38 -33 -16 -10 14 -22 16 -49 12 -26 -4 -38 -2 -42 8 -3 8 -10 12 -15 9
-6 -4 -15 0 -20 7 -7 11 -11 11 -15 2 -6 -15 -53 -18 -53 -3 0 12 -27 13 -32
1 -1 -4 -27 -11 -55 -15 -40 -5 -53 -4 -53 6 0 8 -5 6 -11 -4 -5 -10 -19 -18
-30 -18 -15 0 -18 5 -13 24 4 19 0 26 -30 40 -36 17 -44 30 -26 41 6 4 8 11 5
16 -8 12 -45 12 -45 -1 0 -5 -9 -10 -20 -10 -13 0 -20 7 -20 19 0 21 -33 33
-66 25 -14 -4 -23 0 -27 10 -9 22 -29 19 -47 -6z m240 -128 c0 -5 -7 -10 -15
-10 -8 0 -15 5 -15 10 0 6 7 10 15 10 8 0 15 -4 15 -10z m70 -147 c0 -7 -4
-13 -9 -13 -10 0 -21 25 -21 48 1 15 3 14 15 -2 8 -11 15 -26 15 -33z m680
-108 c0 -8 -6 -15 -14 -15 -17 0 -28 14 -19 24 12 12 33 6 33 -9z"/>
<path d="M2497 6456 c-3 -8 -2 -18 3 -21 13 -8 20 9 11 24 -6 10 -10 9 -14 -3z"/>
<path d="M3094 6428 c-16 -19 -21 -40 -23 -118 -2 -52 -4 -110 -6 -128 -3 -33
-3 -33 17 -15 16 14 19 25 14 56 -4 21 -1 47 5 58 7 15 7 29 0 52 -9 23 -8 33
1 38 7 5 13 14 14 21 3 33 5 38 18 38 8 0 18 5 21 10 13 20 -42 9 -61 -12z"/>
<path d="M3806 6425 c4 -8 10 -15 15 -15 5 0 9 7 9 15 0 8 -7 15 -15 15 -9 0
-12 -6 -9 -15z"/>
<path d="M2233 6413 c-7 -2 -13 -12 -13 -21 0 -12 3 -13 12 -4 17 17 45 15 52
-3 7 -18 26 -20 26 -2 0 6 -12 18 -27 25 -29 13 -31 13 -50 5z"/>
<path d="M2325 6410 c-4 -6 7 -10 25 -10 18 0 29 4 25 10 -3 6 -15 10 -25 10
-10 0 -22 -4 -25 -10z"/>
<path d="M2149 6389 c-10 -6 -7 -9 14 -9 29 0 35 5 14 13 -8 3 -20 1 -28 -4z"/>
<path d="M3955 6390 c-4 -6 5 -10 20 -10 15 0 24 4 20 10 -3 6 -12 10 -20 10
-8 0 -17 -4 -20 -10z"/>
<path d="M4035 6390 c-3 -5 3 -10 14 -10 12 0 21 5 21 10 0 6 -6 10 -14 10 -8
0 -18 -4 -21 -10z"/>
<path d="M4145 6380 c-3 -6 1 -13 10 -16 19 -8 30 0 20 15 -8 14 -22 14 -30 1z"/>
<path d="M3020 6296 c0 -48 11 -64 29 -42 16 19 7 80 -13 84 -13 3 -16 -5 -16
-42z"/>
<path d="M1883 6275 c-9 -25 4 -29 17 -6 7 15 7 21 0 21 -6 0 -13 -7 -17 -15z"/>
<path d="M2965 6208 c-22 -6 -96 -24 -165 -40 -85 -21 -141 -41 -175 -62 -37
-23 -61 -31 -92 -30 -42 1 -43 0 -28 -20 8 -12 27 -38 41 -58 l26 -37 -32 -41
c-32 -40 -35 -65 -6 -41 24 20 35 4 32 -45 -4 -53 -14 -66 -53 -68 -15 0 -38
-11 -51 -24 -21 -21 -21 -24 -7 -58 21 -51 19 -57 -17 -73 -18 -7 -43 -25 -54
-38 -17 -20 -28 -24 -47 -19 -20 5 -23 11 -19 31 4 23 2 25 -34 25 -76 0 -87
43 -15 55 42 7 53 21 26 32 -14 5 -14 8 1 24 16 18 16 19 -3 19 -25 0 -47 -25
-40 -44 4 -10 -3 -17 -23 -21 -60 -13 -40 -95 25 -95 38 0 55 -16 55 -50 0
-23 6 -29 42 -39 38 -12 46 -11 88 10 40 20 49 30 60 69 24 84 56 94 92 30 61
-107 222 -94 215 18 l-2 37 45 0 c43 0 45 -2 48 -30 6 -49 28 -65 92 -65 69 0
84 11 118 81 24 47 31 54 56 54 26 0 32 -5 46 -47 26 -75 43 -88 114 -88 74 1
96 14 89 55 -3 17 -11 35 -19 41 -11 9 -7 19 22 58 20 25 43 46 50 46 8 0 14
5 14 10 0 18 -32 10 -62 -15 -16 -14 -38 -25 -49 -25 -13 0 -19 -7 -19 -24 0
-36 -21 -48 -54 -31 -16 8 -41 15 -56 15 -35 0 -47 26 -24 51 14 15 15 24 7
42 -15 33 -1 50 43 52 45 3 56 20 19 29 -25 6 -36 36 -12 36 8 0 12 13 12 35
-1 23 3 35 12 35 8 0 13 12 13 30 0 17 6 45 14 63 l13 33 99 -9 c55 -4 103
-12 108 -18 6 -5 20 -9 33 -9 12 0 26 -7 30 -15 5 -9 27 -16 56 -17 l48 -3 -5
-47 c-5 -44 -4 -47 26 -62 17 -9 35 -16 40 -16 16 0 7 24 -19 53 l-28 29 30
25 c17 14 38 37 47 51 l17 25 -67 22 c-213 71 -319 97 -446 110 -78 8 -74 18
-42 -98 22 -79 20 -96 -14 -136 -23 -27 -27 -38 -18 -48 8 -10 8 -20 0 -36 -6
-12 -12 -31 -14 -42 -3 -16 -13 -21 -53 -26 -80 -9 -85 -13 -79 -70 5 -44 3
-50 -18 -58 -90 -35 -155 -39 -128 -6 17 21 3 35 -36 35 -33 0 -46 -13 -21
-23 7 -4 8 -6 1 -6 -6 -1 -17 6 -24 14 -18 22 -30 18 -27 -7 1 -17 -4 -24 -21
-26 -15 -2 -28 -15 -36 -34 -13 -30 -13 -30 -18 -6 -6 33 0 48 21 48 28 0 33
12 10 28 -17 12 -25 12 -45 2 -26 -14 -30 -30 -13 -47 17 -17 -17 -28 -85 -28
-71 0 -93 20 -61 55 19 21 19 23 2 35 -34 25 -9 65 41 65 11 0 25 7 32 15 10
13 9 15 -8 15 -12 0 -24 -5 -27 -10 -5 -8 -11 -7 -21 1 -7 6 -11 16 -8 21 4 5
8 36 9 68 4 80 13 104 31 89 16 -13 44 -5 44 13 0 20 49 38 84 31 27 -6 29 -4
18 9 -11 14 -8 16 20 21 18 3 45 9 60 12 21 6 27 3 33 -16 l8 -24 9 24 c10 29
21 20 37 -31 7 -20 24 -54 38 -74 13 -21 27 -53 30 -71 5 -32 4 -33 -28 -33
-46 0 -76 -19 -34 -21 17 0 49 -3 72 -5 42 -4 42 -4 31 22 -9 19 -9 33 0 56
10 28 9 33 -14 50 -13 11 -32 34 -40 50 -15 29 -15 36 1 97 10 36 22 70 26 76
15 16 10 35 -8 34 -10 -1 -36 -6 -58 -11z m-221 -613 c3 -9 0 -15 -9 -15 -16
0 -27 14 -18 24 10 10 21 7 27 -9z m-290 -34 c-10 -2 -22 -8 -26 -14 -3 -6
-13 -12 -22 -13 -10 -1 -6 7 12 26 21 22 30 25 41 16 12 -9 11 -12 -5 -15z"/>
<path d="M3120 6171 c0 -5 7 -11 15 -15 9 -3 15 0 15 9 0 8 -7 15 -15 15 -8 0
-15 -4 -15 -9z"/>
<path d="M1750 6145 c-10 -12 -10 -15 3 -15 8 0 17 7 21 15 3 8 2 15 -3 15 -5
0 -14 -7 -21 -15z"/>
<path d="M2219 6090 c-68 -12 -159 -53 -306 -140 -47 -28 -51 -35 -27 -61 19
-22 12 -49 -15 -56 -11 -3 -24 -18 -30 -35 -12 -34 -27 -30 -47 16 -7 17 -13
25 -14 19 0 -9 -13 -11 -45 -6 -56 7 -61 -11 -12 -45 17 -12 54 -43 82 -67 49
-45 49 -45 36 -80 -11 -32 -10 -37 14 -69 23 -31 77 -60 101 -55 28 5 43 -5
63 -41 13 -24 30 -40 40 -40 10 0 24 -6 30 -14 7 -8 26 -18 42 -21 16 -4 37
-18 45 -31 11 -15 26 -24 43 -24 26 0 51 -16 51 -32 0 -4 -9 -16 -21 -27 -20
-19 -18 -48 2 -35 6 3 23 1 39 -6 24 -10 32 -10 45 3 8 9 27 25 41 36 34 27
23 41 -32 41 -24 0 -44 5 -44 10 0 6 11 10 25 10 20 0 25 5 25 25 0 27 17 34
26 10 6 -15 40 -20 68 -9 28 11 17 24 -18 24 -19 0 -38 5 -41 10 -4 6 5 10 19
10 14 0 26 5 26 11 0 7 -12 9 -32 7 -18 -3 -47 -1 -64 4 -26 7 -40 4 -66 -12
-42 -26 -74 -26 -81 -1 -6 23 0 31 23 31 9 0 24 8 33 18 15 17 15 19 -3 35
-11 9 -25 17 -31 17 -8 0 -8 4 0 14 9 10 -1 21 -46 50 -32 20 -68 36 -79 36
-12 0 -25 8 -28 18 -13 34 -37 72 -47 72 -5 0 -9 10 -9 22 0 12 -6 29 -14 37
-7 9 -16 33 -19 53 -5 32 -2 41 23 62 16 13 43 27 60 31 16 4 30 10 30 14 0 9
95 51 118 51 9 1 35 7 57 15 34 12 41 12 48 0 4 -8 14 -15 22 -15 7 0 28 -8
45 -17 27 -16 31 -22 26 -50 -4 -26 0 -36 17 -48 30 -21 35 -19 39 18 2 24 7
31 21 29 25 -4 21 11 -5 23 -13 6 -23 19 -23 30 0 13 8 21 23 23 12 2 22 10
22 18 0 17 -14 18 -40 2 -16 -10 -23 -10 -35 3 -18 17 -10 49 11 49 8 0 14 9
14 21 0 17 -4 19 -17 13 -18 -8 -73 -8 -128 -1 -16 3 -51 1 -76 -3z m-272
-324 c11 -11 39 -55 61 -96 42 -77 46 -82 96 -96 35 -11 46 -33 18 -41 -14 -3
-18 -11 -14 -25 4 -16 1 -19 -19 -16 -13 2 -29 -3 -35 -11 -10 -13 -14 -13
-28 2 -13 13 -15 21 -6 36 8 16 4 30 -21 71 -17 27 -35 50 -41 50 -6 0 -22 10
-37 23 -23 19 -26 26 -17 41 9 14 6 21 -16 37 -24 17 -26 23 -15 40 14 23 42
17 74 -15z m-76 -79 c-8 -8 -11 -3 -11 19 1 25 2 27 11 11 8 -14 8 -22 0 -30z"/>
<path d="M3121 5996 c-19 -11 -20 -14 -7 -19 8 -3 18 -2 22 4 3 6 11 4 18 -6
11 -15 13 -15 25 -1 12 14 11 16 -7 16 -11 0 -22 4 -24 9 -2 5 -13 4 -27 -3z"/>
<path d="M2230 5970 c0 -5 7 -10 15 -10 8 0 15 5 15 10 0 6 -7 10 -15 10 -8 0
-15 -4 -15 -10z"/>
<path d="M3680 5890 c0 -25 -6 -33 -30 -44 -34 -14 -30 -26 10 -26 14 0 31 -5
37 -11 9 -9 11 4 10 50 -1 42 -5 61 -14 61 -8 0 -13 -12 -13 -30z"/>
<path d="M1748 5892 c-28 -6 -22 -32 7 -32 14 0 25 3 25 8 0 16 -16 28 -32 24z"/>
<path d="M3330 5870 c13 -23 20 -26 20 -6 0 8 -7 16 -15 20 -13 4 -14 2 -5
-14z"/>
<path d="M3888 5848 c-15 -18 -28 -41 -28 -50 0 -20 -49 -25 -66 -8 -15 15
-62 -7 -69 -32 -4 -10 -3 -27 0 -38 4 -14 1 -22 -11 -27 -16 -6 -16 -7 1 -19
16 -12 16 -14 2 -19 -8 -4 -18 -17 -21 -29 -7 -29 -54 -53 -62 -31 -4 8 -15
15 -26 15 -11 0 -22 8 -25 20 -3 11 -9 20 -14 20 -13 0 -11 34 3 48 10 10 10
15 -2 23 -27 17 -65 6 -68 -19 -3 -17 -8 -21 -21 -17 -21 6 -71 -10 -71 -24 0
-5 18 -7 40 -4 50 7 73 -10 65 -46 -6 -31 31 -77 70 -87 47 -12 124 40 149
100 14 34 19 37 48 34 33 -3 33 -3 33 -57 1 -47 5 -57 33 -82 25 -22 42 -29
75 -29 63 0 90 9 76 26 -6 8 -8 21 -5 30 4 9 1 23 -5 31 -10 12 -6 13 28 7 48
-7 68 11 22 20 -29 5 -31 9 -25 37 5 25 3 30 -11 27 -10 -2 -19 -12 -21 -23
-10 -49 -37 -57 -79 -21 -15 13 -37 25 -48 27 -29 6 -32 45 -5 52 18 5 21 10
15 35 -8 39 3 47 68 50 31 2 36 21 8 29 -13 3 -21 15 -23 35 l-3 30 -27 -34z
m28 -259 c14 -15 14 -21 4 -34 -20 -25 -59 -19 -66 10 -13 53 23 67 62 24z
m64 -33 c0 -8 -5 -18 -11 -22 -14 -8 -33 11 -25 25 10 16 36 13 36 -3z"/>
<path d="M4550 5855 c0 -8 7 -15 15 -15 8 0 15 7 15 15 0 8 -7 15 -15 15 -8 0
-15 -7 -15 -15z"/>
<path d="M2700 5806 c0 -34 4 -46 13 -44 19 7 20 45 3 70 -15 22 -16 21 -16
-26z"/>
<path d="M3356 5818 c-8 -38 -5 -41 28 -32 28 7 36 24 11 24 -8 0 -15 6 -15
14 0 29 -18 25 -24 -6z"/>
<path d="M3563 5836 c6 -16 -12 -26 -45 -26 -30 0 -14 -13 32 -26 l39 -12 -6
29 c-3 18 -1 29 6 29 6 0 11 5 11 10 0 6 -9 10 -21 10 -14 0 -19 -5 -16 -14z"/>
<path d="M2349 5816 c13 -15 4 -46 -17 -62 -22 -16 -2 -23 45 -17 l42 5 -22
44 c-14 29 -27 44 -40 44 -15 0 -17 -3 -8 -14z"/>
<path d="M2893 5813 c-12 -2 -26 -10 -31 -16 -8 -9 2 -12 40 -14 48 -1 49 -1
32 18 -9 10 -18 18 -18 18 -1 -1 -11 -4 -23 -6z"/>
<path d="M3990 5735 c-11 -13 -8 -15 20 -15 21 0 30 4 28 13 -7 18 -33 20 -48
2z"/>
<path d="M4435 5729 c-4 -6 -5 -13 -2 -16 7 -7 27 6 27 18 0 12 -17 12 -25 -2z"/>
<path d="M4046 5688 c-8 -12 -13 -25 -10 -29 6 -10 44 26 44 41 0 17 -18 11
-34 -12z"/>
<path d="M4419 5664 c-7 -8 -25 -22 -41 -30 -49 -26 -93 -147 -48 -135 8 2 33
7 55 11 100 16 142 93 85 150 -24 24 -34 25 -51 4z"/>
<path d="M3610 5660 c-13 -9 -13 -11 0 -20 22 -14 46 -12 64 6 9 8 16 17 16
20 0 8 -65 3 -80 -6z"/>
<path d="M3122 5540 c-18 -17 -40 -30 -49 -30 -9 0 -13 -3 -10 -7 4 -3 46 -6
94 -5 132 2 132 2 95 16 -19 6 -44 22 -57 34 -29 28 -33 28 -73 -8z"/>
<path d="M4147 5563 c-4 -3 -7 -15 -7 -25 0 -15 -5 -18 -19 -13 -22 7 -53 -28
-45 -50 9 -22 67 -45 81 -33 13 11 43 4 43 -10 0 -13 -75 -29 -110 -24 -21 3
-34 11 -38 24 -4 16 -10 18 -31 13 -14 -3 -51 -10 -81 -15 -30 -4 -63 -11 -73
-15 -11 -5 -25 -1 -37 10 -12 11 -26 15 -37 10 -15 -5 -12 -9 17 -21 19 -9 53
-16 75 -18 22 -1 45 -4 50 -8 6 -3 33 -9 60 -13 28 -4 58 -14 68 -23 10 -9 28
-17 40 -18 12 -1 30 -5 40 -9 23 -9 47 11 47 40 0 16 9 27 28 34 47 19 87 47
90 64 2 11 -2 14 -17 10 -12 -3 -21 -1 -21 6 0 6 -12 11 -26 11 -21 0 -24 4
-19 20 4 14 2 20 -9 20 -9 0 -21 9 -28 20 -13 20 -29 26 -41 13z"/>
<path d="M2829 5517 c-14 -12 -35 -28 -45 -35 -16 -11 -12 -12 30 -7 27 3 83
6 125 6 42 1 65 4 51 6 -14 2 -49 15 -78 29 -29 13 -54 24 -55 24 -1 0 -14
-11 -28 -23z"/>
<path d="M3435 5529 c-4 -5 -18 -14 -31 -19 -45 -17 -24 -27 62 -28 l87 -1
-39 29 c-41 31 -68 37 -79 19z"/>
<path d="M2551 5491 c-6 -10 -27 -28 -47 -40 -45 -27 -41 -33 11 -21 22 5 69
12 105 16 89 8 106 20 42 29 -28 4 -56 13 -63 21 -16 19 -36 18 -48 -5z"/>
<path d="M3708 5493 c-16 -8 -28 -18 -28 -22 0 -8 111 -23 118 -17 5 6 -44 56
-54 55 -5 -1 -21 -8 -36 -16z"/>
<path d="M2958 5443 c23 -2 59 -2 80 0 20 2 1 4 -43 4 -44 0 -61 -2 -37 -4z"/>
<path d="M3379 5438 c23 -6 37 -6 44 1 8 8 -2 11 -33 10 l-45 -1 34 -10z"/>
<path d="M3160 5422 c0 -5 -16 -16 -36 -25 -19 -10 -34 -22 -32 -28 2 -6 24
-22 48 -36 l45 -25 43 28 c46 30 51 41 25 51 -10 3 -30 15 -45 25 -28 19 -48
23 -48 10z"/>
<path d="M2658 5382 c-54 -29 -60 -48 -20 -63 55 -22 202 10 202 44 0 12 -51
31 -110 41 -15 2 -44 -6 -72 -22z"/>
<path d="M3524 5376 c-26 -20 -10 -35 55 -52 53 -13 148 -11 164 5 42 42 -165
86 -219 47z"/>
<path d="M3950 5324 c0 -5 19 -29 41 -54 43 -49 36 -62 -23 -41 -38 14 -48 14
-48 1 0 -5 11 -12 25 -16 46 -11 28 -27 -22 -20 -76 11 -244 25 -433 36 -96 6
-186 12 -200 14 -65 11 -626 -23 -847 -51 -48 -6 -59 11 -15 22 l27 7 -23 9
c-14 5 -31 5 -42 -1 -10 -6 -30 -10 -44 -10 -15 0 -27 -7 -31 -19 -3 -11 -12
-22 -20 -25 -8 -3 -15 -14 -15 -24 0 -15 14 -22 63 -35 34 -9 83 -18 108 -21
25 -3 68 -13 95 -22 37 -12 63 -15 109 -9 33 5 107 6 165 4 108 -4 151 -4 570
-2 135 1 277 1 315 1 72 -1 124 7 278 43 79 19 87 23 87 44 0 13 -4 27 -10 30
-5 3 -10 15 -10 26 0 14 7 19 28 19 38 0 44 8 27 34 -8 11 -15 28 -15 38 0 10
-7 16 -17 16 -10 0 -42 3 -70 7 -30 4 -53 4 -53 -1z m-1106 -149 c-21 -16 -64
-20 -64 -6 0 11 23 18 59 20 24 1 24 0 5 -14z"/>
<path d="M2488 5243 c12 -2 30 -2 40 0 9 3 -1 5 -23 4 -22 0 -30 -2 -17 -4z"/>
<path d="M3838 5243 c12 -2 32 -2 45 0 12 2 2 4 -23 4 -25 0 -35 -2 -22 -4z"/>
<path d="M2743 5043 c15 -2 37 -2 50 0 12 2 0 4 -28 4 -27 0 -38 -2 -22 -4z"/>
<path d="M3457 5043 c18 -2 50 -2 70 0 21 2 7 4 -32 4 -38 0 -55 -2 -38 -4z"/>
<path d="M2963 5023 c53 -2 141 -2 195 0 53 1 9 3 -98 3 -107 0 -151 -2 -97
-3z"/>
<path d="M4383 4858 c-48 -23 -97 -69 -120 -112 -23 -45 -29 -138 -10 -184 12
-31 13 -43 4 -63 -24 -47 -50 -37 -145 58 -49 48 -119 117 -156 152 l-67 64
-24 -23 c-14 -13 -25 -31 -25 -41 0 -22 114 -131 268 -258 23 -19 42 -40 42
-47 0 -20 35 -26 64 -10 15 8 22 16 16 18 -19 6 8 54 38 68 14 6 33 21 41 32
l14 21 9 -22 c5 -15 14 -21 23 -17 10 4 15 -1 15 -14 0 -24 -18 -26 -35 -4
-11 15 -14 15 -41 -2 -30 -19 -44 -34 -44 -46 0 -15 20 -8 37 12 23 26 53 26
53 0 0 -14 5 -18 18 -14 13 4 12 1 -5 -14 -13 -11 -23 -26 -23 -34 -1 -22 -26
-49 -41 -43 -10 4 -14 -3 -14 -25 0 -16 5 -30 10 -30 6 0 71 -61 145 -135 74
-74 139 -135 145 -135 16 0 55 44 55 61 0 15 -57 69 -194 183 -101 83 -102 84
-69 118 24 26 31 27 97 25 66 -2 75 1 119 31 58 40 92 91 107 155 25 114 -27
216 -139 272 -59 30 -111 31 -168 3z m147 -103 c51 -26 81 -112 59 -168 -13
-34 -57 -87 -72 -87 -4 0 -34 27 -66 60 -54 58 -59 60 -86 50 -15 -6 -30 -8
-33 -6 -8 8 8 90 21 106 46 58 117 76 177 45z"/>
<path d="M2816 4849 c-47 -11 -66 -25 -64 -47 3 -41 -3 -52 -25 -52 -13 0 -33
-9 -45 -20 -11 -11 -43 -27 -69 -36 -72 -24 -80 -35 -60 -81 9 -21 18 -48 19
-60 l3 -22 53 26 c69 33 65 59 -5 37 -20 -5 -23 -3 -23 20 0 33 34 68 63 64
18 -2 23 -11 25 -48 2 -26 10 -48 18 -53 8 -4 14 -18 14 -30 1 -21 1 -22 12
-2 6 11 11 21 12 21 1 1 11 5 23 8 16 5 23 2 28 -14 10 -30 25 -24 25 10 0 35
23 49 52 31 16 -10 20 -8 28 11 5 14 9 17 10 8 1 -15 34 -60 44 -60 3 0 6 13
6 29 0 23 5 30 26 34 16 3 28 0 31 -9 10 -25 20 -14 26 26 3 26 0 51 -10 71
-22 44 -12 59 41 59 25 0 55 4 68 8 13 5 64 4 116 -1 l94 -10 -7 -36 c-4 -20
-13 -43 -21 -52 -10 -12 -11 -18 -2 -27 9 -9 8 -18 -3 -39 -18 -35 -30 -44
-49 -37 -8 3 -59 2 -112 -2 -88 -6 -97 -8 -100 -27 -4 -25 -42 -38 -76 -26
-20 8 -21 7 -12 -10 17 -33 12 -69 -11 -82 -12 -6 -49 -14 -83 -17 -60 -5 -60
-6 -31 -18 37 -15 134 1 142 23 3 8 17 19 30 24 18 6 24 15 20 28 -2 10 3 23
14 29 30 19 49 -10 48 -71 0 -29 1 -86 3 -127 3 -49 0 -82 -9 -94 -10 -16 -9
-22 5 -32 16 -12 15 -13 -6 -14 -12 0 -25 7 -28 15 -9 23 -67 37 -123 29 -33
-4 -56 -3 -65 5 -10 9 -20 9 -40 0 -25 -12 -30 -10 -63 24 -19 20 -43 38 -52
39 -19 2 -122 9 -168 11 -37 2 -45 26 -13 34 11 3 20 11 20 18 0 6 10 17 23
23 12 7 29 16 37 22 45 29 102 47 142 45 48 -3 68 8 68 37 0 15 -4 18 -17 13
-44 -19 -71 -17 -78 5 -6 19 -9 20 -23 7 -10 -7 -40 -23 -68 -35 -75 -31 -172
-84 -235 -128 -85 -60 -188 -148 -185 -159 1 -5 58 -8 140 -6 129 3 138 2 134
-16 -2 -10 -11 -17 -21 -17 -13 1 -17 -6 -17 -32 0 -24 5 -34 15 -34 24 0 17
-26 -10 -38 -18 -8 -25 -20 -26 -39 -5 -237 -4 -300 1 -368 5 -59 7 -28 8 123
2 185 3 202 20 202 13 0 14 2 3 9 -22 14 -3 31 36 31 36 0 36 0 29 38 -3 20
-6 67 -6 103 0 59 -2 67 -21 72 -13 4 -20 12 -17 24 3 16 16 18 130 20 109 2
127 0 132 -14 7 -17 -9 -33 -31 -33 -10 0 -13 -25 -13 -89 0 -49 -3 -96 -6
-105 -5 -13 2 -16 34 -16 49 0 63 17 34 41 -26 20 -29 39 -6 39 13 0 15 7 10
32 -3 18 -13 36 -21 41 -36 20 5 27 151 27 131 0 154 -2 154 -15 0 -9 -11 -20
-25 -25 -14 -5 -25 -17 -25 -28 0 -10 11 -24 25 -30 31 -14 33 -40 3 -44 -22
-3 -23 -7 -28 -153 -3 -82 -9 -156 -13 -163 -6 -8 -23 -11 -49 -8 -22 2 -46 2
-54 -1 -14 -5 -19 -44 -7 -56 4 -4 5 -32 4 -62 -1 -30 1 -55 6 -55 4 0 9 32
11 71 1 39 5 75 8 80 6 10 302 10 439 0 l90 -6 3 -30 c2 -16 7 -34 11 -38 9
-9 24 80 16 94 -3 4 -52 7 -108 5 -139 -5 -146 1 -147 115 0 46 -2 95 -2 109
-1 14 -1 89 0 168 2 119 4 142 17 142 12 0 15 18 15 105 0 58 -4 105 -9 105
-5 0 -12 -10 -14 -22 -2 -13 -5 12 -6 54 l-1 77 34 6 c19 4 43 4 54 1 16 -5
25 0 38 24 12 20 26 30 42 30 21 0 22 -3 16 -37 -4 -21 -11 -46 -15 -55 -15
-28 -10 -77 10 -97 10 -10 38 -22 62 -26 41 -7 45 -5 71 26 18 21 28 45 28 66
0 17 5 35 10 38 6 3 10 14 10 25 0 16 3 17 25 7 19 -9 25 -20 25 -43 0 -17 -7
-37 -15 -44 -18 -15 -20 -30 -4 -30 6 0 13 9 16 21 5 17 11 19 36 13 48 -10
177 -81 313 -171 170 -112 321 -306 432 -552 57 -127 119 -418 95 -442 -7 -7
-178 -10 -513 -10 -277 1 -504 2 -505 3 -1 2 -7 12 -13 23 -10 17 -11 13 -12
-27 0 -28 5 -48 13 -51 9 -4 9 -6 -1 -6 -9 -1 -11 -15 -6 -53 4 -31 1 -72 -6
-98 -7 -25 -11 -47 -10 -50 1 -3 45 -3 97 -1 88 3 95 2 91 -15 -2 -11 -11 -18
-21 -18 -10 1 -17 -5 -17 -16 0 -10 -3 -25 -6 -34 -4 -11 0 -16 14 -16 31 0
37 -19 9 -29 -16 -6 -27 -21 -32 -43 -12 -48 -15 -207 -4 -214 8 -4 15 133 11
189 -1 13 6 17 38 17 l40 0 0 104 c0 97 -2 105 -21 111 -24 8 -23 53 1 46 8
-2 68 -4 133 -3 110 0 117 -1 117 -20 0 -11 -8 -22 -20 -25 -18 -5 -20 -14
-21 -99 -1 -52 -2 -100 -3 -106 -1 -9 11 -12 34 -10 50 5 58 17 30 47 -20 21
-21 25 -7 31 20 7 21 74 0 74 -7 0 -13 7 -13 15 0 13 22 15 134 15 74 0 137 4
140 8 12 19 -14 28 -88 30 -49 1 -88 7 -101 16 -17 11 -25 12 -34 3 -6 -6 -11
-7 -11 -1 0 5 -13 24 -29 43 -17 19 -28 38 -25 43 3 4 131 7 284 6 219 -1 280
-4 280 -14 0 -7 4 -14 10 -16 12 -4 -7 -134 -26 -171 -8 -16 -11 -33 -8 -38 9
-14 -14 -74 -36 -94 -14 -12 -20 -31 -20 -58 0 -37 -1 -39 -25 -33 -18 5 -25
2 -25 -8 0 -8 4 -17 9 -20 16 -10 0 -45 -22 -48 -13 -2 -24 -15 -32 -38 l-12
-35 -13 39 c-7 21 -14 57 -15 80 -2 22 -7 62 -11 88 -4 33 -3 53 6 63 17 21
10 26 -26 16 -21 -6 -28 -13 -26 -27 4 -34 2 -267 -4 -349 -3 -44 -6 -91 -7
-104 -2 -30 17 -38 37 -14 85 104 182 269 222 378 14 39 29 79 34 90 25 62 51
199 65 345 3 30 15 60 24 60 3 0 14 -17 23 -38 20 -43 20 -170 0 -195 -7 -8
-12 -36 -11 -63 1 -95 -17 -159 -35 -121 -4 6 -4 -12 -2 -40 3 -30 1 -53 -4
-53 -6 0 -10 -6 -10 -13 0 -21 -30 -77 -41 -77 -5 0 -9 -8 -9 -18 0 -10 -5
-23 -10 -28 -10 -10 -50 -111 -50 -126 0 -19 20 -5 41 30 58 96 111 219 148
347 22 77 51 281 51 360 0 249 -71 516 -189 710 -51 84 -147 210 -178 234 -12
10 -25 30 -29 46 -7 28 -70 94 -90 95 -7 0 -14 7 -18 15 -3 8 -16 15 -29 15
-13 0 -32 9 -42 20 -25 27 -147 108 -208 138 -45 22 -48 26 -42 50 21 85 22
81 -47 102 -26 8 -28 7 -25 -22 2 -34 -20 -55 -47 -45 -24 10 -21 62 5 73 21
10 21 11 -11 42 -17 18 -41 32 -52 32 -18 0 -19 4 -14 34 8 44 -6 54 -82 62
-60 7 -60 7 -77 -25 -10 -21 -22 -31 -31 -27 -16 6 -19 -9 -4 -19 13 -8 13
-45 0 -65 -9 -13 -11 -13 -20 0 -6 10 -10 11 -10 3 0 -7 -5 -13 -11 -13 -15 0
-3 78 14 99 10 12 9 13 -8 6 -11 -5 -40 -8 -65 -6 -61 4 -190 5 -270 2 -131
-4 -150 -2 -150 19 0 11 -9 24 -19 30 -22 11 -22 11 -75 -1z m76 -75 c5 -22
12 -57 14 -79 5 -40 5 -40 -13 -19 -10 11 -31 24 -46 28 -40 10 -44 32 -13 61
24 22 25 25 7 25 -10 0 -21 -5 -23 -12 -5 -15 -28 -1 -28 18 0 9 10 14 29 14
17 0 33 5 37 11 10 16 24 -3 36 -47z m625 20 c-9 -9 -28 6 -21 18 4 6 10 6 17
-1 6 -6 8 -13 4 -17z m73 2 c0 -8 -5 -18 -10 -21 -6 -4 -8 -14 -5 -24 3 -12
-9 -28 -44 -53 -27 -20 -52 -34 -55 -31 -16 16 -1 103 18 103 6 0 22 9 36 20
30 23 60 26 60 6z m-597 -26 c7 -28 -3 -60 -19 -60 -8 0 -16 0 -19 0 -3 0 -10
11 -16 25 -8 19 -8 29 1 40 18 21 47 18 53 -5z m-233 -49 c5 -11 10 -34 10
-52 l0 -33 -30 29 c-33 31 -36 45 -18 63 17 17 26 15 38 -7z m893 -3 c12 -18
1 -68 -15 -68 -6 0 -17 -8 -24 -17 -12 -17 -13 -16 -14 7 0 40 20 102 32 98 7
-3 16 -11 21 -20z m-125 -157 c11 -7 11 -16 1 -50 -18 -60 -34 -69 -65 -40
l-26 24 7 -26 c7 -30 -12 -50 -26 -28 -13 20 0 71 22 92 11 10 19 22 19 27 0
12 50 13 68 1z m-348 -431 c0 -248 -4 -421 -9 -425 -20 -12 -26 27 -28 193 -2
96 -6 178 -9 183 -3 6 -3 18 1 27 13 29 11 64 -2 69 -9 4 -10 9 -4 17 5 6 10
85 10 175 0 157 8 200 32 185 5 -3 9 -191 9 -424z m-724 123 c21 -28 16 -39
-6 -13 -11 13 -20 25 -20 27 0 9 14 1 26 -14z m652 -191 c2 -7 -3 -12 -12 -12
-9 0 -16 7 -16 16 0 17 22 14 28 -4z m1376 -811 c11 -17 -27 -19 -349 -17
-580 4 -651 6 -635 16 19 12 977 13 984 1z m-837 -77 c4 -12 -41 -64 -56 -64
-14 0 -32 36 -23 45 4 3 8 11 8 16 1 5 2 12 3 15 2 10 64 -1 68 -12z"/>
<path d="M1905 4727 c-26 -19 -68 -60 -122 -119 -7 -7 -22 -22 -33 -33 -33
-31 -37 -66 -10 -84 47 -31 110 -94 110 -111 0 -19 60 -80 80 -80 19 0 119
-111 120 -132 0 -32 25 -19 63 32 33 44 36 51 20 56 -10 3 -29 11 -42 17 -19
10 -25 8 -36 -7 -13 -17 -14 -16 -17 6 -2 15 -9 22 -20 20 -13 -2 -18 4 -18
19 0 15 -5 19 -15 15 -27 -10 -16 4 55 75 64 63 110 87 110 58 0 -20 42 -70
66 -79 31 -12 30 -23 -3 -55 -31 -28 -18 -35 15 -7 17 15 45 33 122 81 8 5 31
16 51 25 20 9 42 22 49 31 7 8 18 15 24 15 6 0 24 11 40 25 16 14 33 25 38 25
4 0 8 5 8 10 0 14 -49 1 -82 -21 -14 -11 -29 -19 -33 -19 -8 0 -76 -49 -90
-65 -5 -7 -20 -17 -32 -24 -20 -10 -28 -6 -83 44 -33 30 -64 55 -70 55 -5 0
-10 10 -10 23 0 25 -61 97 -83 97 -19 0 -51 37 -76 88 -25 49 -49 54 -96 19z
m25 -78 c0 -5 8 -13 18 -16 9 -4 28 -15 41 -25 14 -10 32 -16 43 -13 21 7 23
0 6 -21 -7 -8 -31 -36 -53 -63 -34 -40 -80 -71 -108 -71 -4 0 -7 11 -7 24 0
14 -4 27 -9 30 -5 3 -12 18 -16 33 -3 15 -14 32 -22 39 -15 10 -11 17 31 57
42 42 76 53 76 26z m83 -175 c-5 -13 -2 -15 15 -9 30 9 28 -10 -3 -40 -31 -31
-37 -31 -29 0 4 18 1 27 -10 31 -13 5 -14 9 -5 20 16 20 40 18 32 -2z"/>
<path d="M3105 4696 c-34 -24 -7 -34 97 -35 l103 -1 -25 20 c-19 16 -37 20
-80 18 -30 -1 -60 1 -66 4 -6 4 -19 1 -29 -6z"/>
<path d="M4290 4390 c-17 -41 -7 -48 19 -12 19 27 19 42 1 42 -4 0 -13 -14
-20 -30z"/>
<path d="M3648 4270 c-14 -11 -35 -20 -46 -20 -30 0 -35 -16 -18 -52 9 -17 13
-34 10 -37 -4 -3 -9 0 -11 7 -6 17 -43 15 -43 -3 0 -8 9 -19 20 -25 22 -12 27
-46 8 -53 -10 -4 -9 -8 2 -16 11 -8 16 -7 18 3 3 15 31 30 40 21 3 -2 -1 -11
-8 -20 -7 -8 -10 -25 -6 -40 7 -29 26 -34 26 -6 0 10 6 24 14 30 7 6 11 22 9
35 -6 27 22 43 43 25 11 -9 11 -15 3 -25 -14 -17 -3 -18 15 -2 10 9 10 17 3
30 -9 13 -6 22 17 43 l29 26 -7 -28 c-4 -15 -9 -36 -12 -45 -3 -10 3 -21 16
-28 11 -6 20 -20 20 -30 0 -25 -8 -25 -33 -2 -19 16 -20 16 -14 -6 6 -24 -27
-92 -44 -92 -5 0 -9 -7 -9 -15 0 -8 -6 -15 -14 -15 -24 0 -28 18 -6 30 23 12
27 40 5 40 -8 0 -21 -16 -30 -36 -15 -36 -40 -43 -40 -11 0 9 -10 24 -23 32
-18 14 -20 20 -11 37 9 17 8 23 -6 31 -49 27 -78 65 -84 108 l-6 44 -56 3
c-65 3 -74 -4 -82 -65 -6 -47 17 -79 47 -67 23 9 96 -41 96 -66 0 -13 -12 -26
-35 -37 -32 -15 -36 -15 -53 0 -28 25 -57 21 -86 -14 -34 -40 -33 -51 11 -88
41 -35 50 -37 78 -17 11 7 61 16 110 20 83 7 93 5 117 -14 37 -29 92 -50 128
-50 27 0 31 -3 28 -22 -2 -18 -13 -25 -45 -33 -55 -13 -73 -32 -75 -77 -1 -20
-9 -46 -18 -58 -14 -19 -20 -21 -38 -11 -36 19 -57 13 -84 -28 -29 -44 -27
-50 25 -85 46 -32 87 -34 94 -6 3 11 36 43 74 71 60 44 68 54 63 75 -5 19 -1
26 21 34 30 11 45 6 45 -16 0 -8 4 -14 8 -14 16 0 82 -68 82 -84 0 -9 -11 -21
-25 -26 -35 -13 -41 -35 -22 -76 20 -41 46 -48 112 -32 47 12 50 15 47 43 -2
17 -6 65 -8 107 -5 75 -6 77 -35 83 l-30 7 20 31 c11 18 22 49 26 70 5 26 12
37 25 37 28 0 80 57 80 88 0 17 -13 40 -36 63 l-36 37 28 14 c35 16 45 48 15
48 -27 0 -33 13 -16 36 36 48 -2 115 -67 117 -42 1 -95 -34 -104 -68 -10 -40
41 -120 107 -168 64 -46 80 -79 53 -108 -25 -27 -73 -33 -119 -14 -58 24 -87
53 -75 76 16 30 12 40 -14 33 -19 -4 -27 0 -36 16 -13 24 -2 62 30 110 33 49
44 99 30 141 -15 45 -36 55 -136 64 -61 5 -74 3 -96 -15z m40 -86 c-9 -9 -24
-14 -32 -11 -27 11 -17 27 16 27 30 0 31 -1 16 -16z m356 -30 c7 -19 -55 -104
-74 -101 -8 1 -21 15 -29 32 -12 25 -12 32 0 54 22 38 90 48 103 15z m-278
-225 c3 -6 1 -16 -5 -22 -19 -19 -12 -37 15 -37 14 0 23 -4 19 -10 -9 -15 -61
-12 -74 4 -8 10 -7 21 5 45 16 32 28 39 40 20z m81 -104 c6 -14 8 -27 3 -30
-11 -7 -43 32 -35 44 10 17 19 13 32 -14z"/>
<path d="M1996 4083 c-105 -132 -200 -347 -241 -548 -22 -107 -31 -361 -16
-451 19 -109 59 -267 85 -336 49 -132 147 -297 226 -384 36 -40 38 -69 7 -98
-13 -11 -36 -38 -51 -58 -40 -53 -66 -56 -233 -22 -30 6 -48 44 -63 134 -7 41
-18 90 -26 108 -16 39 -9 66 15 56 9 -4 28 -9 44 -12 23 -4 27 -1 27 19 0 13
-19 66 -41 118 l-42 95 7 100 c3 56 9 127 12 159 6 51 5 57 -12 57 -11 0 -28
-16 -41 -38 -13 -20 -47 -71 -77 -112 -70 -96 -186 -306 -193 -346 -4 -27 -1
-33 17 -39 12 -4 42 -1 66 5 57 16 79 2 70 -48 -6 -37 8 -167 25 -247 11 -47
70 -179 90 -199 12 -13 12 -143 0 -151 -5 -3 -12 -19 -16 -36 -4 -17 -20 -45
-35 -62 -64 -73 -31 -99 47 -38 37 30 69 45 118 56 76 18 116 13 160 -19 60
-45 197 -82 329 -91 49 -3 96 -10 103 -17 8 -6 12 -25 11 -46 -5 -59 19 -63
104 -17 124 66 195 112 291 189 127 101 125 100 198 82 88 -23 343 -21 474 3
110 20 224 49 240 61 6 4 33 15 62 24 28 10 57 24 63 32 7 7 18 14 25 14 7 0
24 9 38 20 39 31 59 25 117 -35 50 -53 52 -57 40 -81 -13 -22 -11 -26 19 -51
17 -15 42 -31 54 -37 12 -6 30 -26 39 -45 35 -70 81 -99 107 -67 8 9 33 14 75
14 61 0 128 26 177 68 24 21 43 17 62 -15 45 -77 124 -113 160 -73 38 42 13
112 -57 156 -25 16 -46 30 -46 32 0 2 13 23 30 47 51 77 72 136 66 189 -3 26
-1 50 5 53 17 11 9 42 -13 58 -27 18 -66 56 -125 119 -32 35 -48 44 -66 41
-18 -4 -32 6 -63 39 -21 25 -44 53 -50 64 -14 22 -11 24 -46 -45 -30 -58 -29
-73 2 -53 26 16 40 15 40 -3 0 -10 10 -15 29 -15 48 0 56 -23 21 -61 -16 -19
-32 -40 -35 -49 -3 -8 -20 -25 -39 -38 -42 -29 -146 -137 -146 -152 0 -6 11 0
25 14 14 14 25 29 25 34 0 5 9 12 20 15 11 3 20 3 20 1 0 -12 -79 -79 -108
-91 -19 -8 -36 -23 -39 -34 -3 -10 -13 -19 -22 -19 -9 0 -31 -9 -49 -20 -34
-21 -52 -19 -52 5 0 8 -8 30 -19 48 -22 40 -16 56 34 87 34 21 46 40 24 40 -6
0 -25 -11 -42 -24 -18 -13 -72 -43 -122 -66 -49 -23 -113 -53 -142 -66 -28
-13 -60 -24 -71 -24 -10 0 -37 -9 -60 -20 -22 -11 -57 -20 -76 -20 -19 0 -59
-10 -90 -21 -46 -18 -61 -20 -81 -11 -19 9 -39 9 -76 1 -32 -7 -54 -7 -62 -1
-7 5 -31 13 -54 17 -24 4 -45 10 -48 14 -2 5 44 14 103 21 153 18 327 60 441
108 130 55 411 239 411 270 0 22 -131 7 -150 -17 -8 -11 -30 -21 -49 -23 -32
-3 -35 -7 -45 -48 -8 -34 -16 -45 -29 -43 -11 0 -23 -9 -29 -23 -8 -17 -19
-24 -40 -24 -25 0 -28 -3 -23 -20 7 -22 2 -24 -24 -10 -14 7 -23 5 -36 -10
-10 -11 -28 -20 -41 -20 -13 0 -26 -5 -30 -11 -4 -6 -19 -9 -36 -5 -20 4 -30
1 -35 -10 -4 -11 -13 -13 -34 -9 -18 4 -29 2 -29 -4 0 -19 -57 -41 -89 -35
-17 4 -31 10 -31 15 0 14 -22 10 -42 -8 -14 -13 -18 -13 -19 -2 0 8 -2 70 -4
139 -1 69 -6 133 -10 143 -10 24 20 23 52 -3 21 -17 41 -20 114 -20 56 0 89
-4 89 -11 0 -5 4 -7 10 -4 5 3 20 -1 34 -10 21 -14 24 -14 29 -1 4 9 13 13 22
10 10 -4 15 0 15 11 0 13 -6 15 -30 10 -26 -6 -30 -3 -36 20 l-7 27 -111 -3
-111 -4 1 245 c0 233 1 247 22 288 12 23 29 42 37 42 21 0 40 51 24 61 -11 7
-64 -68 -120 -171 -9 -16 -32 -45 -52 -65 -21 -21 -37 -39 -37 -40 0 -2 4 -15
9 -29 6 -13 11 -109 12 -212 1 -103 5 -203 9 -221 5 -18 4 -36 -1 -39 -5 -3
-9 -45 -8 -92 1 -92 -6 -125 -25 -119 -8 3 -12 98 -13 328 -2 367 -3 379 -10
362 -10 -26 -30 -10 -103 83 -41 51 -78 94 -83 94 -18 0 35 -78 77 -115 l46
-40 0 -344 c0 -189 3 -341 8 -337 4 4 9 119 12 254 l6 247 2 -268 c1 -184 -1
-266 -8 -262 -6 4 -17 2 -25 -5 -18 -15 -126 0 -310 42 -50 11 -61 15 -102 36
-13 7 -27 12 -33 12 -11 0 -158 69 -215 102 -183 104 -378 317 -480 525 -62
127 -100 248 -124 394 -28 170 -29 166 17 170 65 7 990 -6 997 -13 4 -4 8 -40
9 -80 1 -53 6 -80 20 -98 l18 -25 -6 35 c-9 51 -29 267 -30 330 -1 30 -4 56
-8 58 -5 1 -26 2 -48 2 -33 0 -40 -3 -38 -17 2 -15 -7 -19 -50 -23 -49 -5 -53
-4 -59 18 -3 13 -3 58 1 99 7 69 5 78 -15 99 -27 29 -68 31 -100 6 -21 -18
-22 -25 -20 -120 l2 -102 -45 0 c-26 0 -49 -1 -53 -1 -5 -1 -12 8 -18 20 -9
21 -16 22 -108 20 -54 -1 -101 1 -104 5 -4 3 -5 130 -4 282 2 257 1 277 -16
290 -17 14 -17 14 0 28 20 16 21 77 0 83 -20 7 -114 -106 -184 -222 -69 -113
-98 -184 -151 -365 -5 -19 -18 -100 -28 -180 -11 -80 -19 -146 -19 -147 -1 -2
-5 -3 -10 -3 -5 0 -9 10 -9 23 0 12 -4 40 -10 62 -6 22 -14 82 -17 133 -5 79
-4 92 9 92 11 0 16 10 16 32 0 17 7 39 16 49 13 14 13 20 2 38 -10 17 -10 25
0 41 6 11 12 29 12 41 0 14 5 19 14 16 10 -4 16 8 21 48 4 32 12 56 21 59 8 3
14 12 14 21 0 17 24 58 52 89 10 11 18 26 18 34 0 7 11 28 24 45 26 33 50 87
42 94 -2 2 -24 -22 -50 -54z m160 -195 c2 -24 6 -95 8 -158 8 -217 16 -268 46
-298 15 -15 29 -34 33 -42 4 -12 6 -11 6 3 1 24 13 21 41 -8 25 -27 27 -25
-32 -29 -9 -1 -20 -4 -24 -8 -13 -13 -34 -9 -34 7 0 19 -24 20 -39 1 -14 -16
-171 -12 -181 5 -4 6 -13 10 -21 9 -47 -7 -68 20 -43 55 8 10 14 39 14 64 0
25 9 66 20 90 11 24 20 56 20 72 0 15 5 31 11 35 7 4 9 21 5 45 -6 40 -3 44
38 39 15 -1 17 3 13 22 -8 30 6 87 17 70 4 -7 14 -12 22 -12 10 0 13 7 8 25
-6 26 4 33 23 14 14 -14 34 -2 32 19 -2 26 0 36 7 29 4 -4 8 -26 10 -49z m537
-500 c10 0 17 -6 17 -18 0 -27 -52 -39 -108 -26 -31 7 -49 6 -62 -2 -24 -15
-35 1 -18 27 9 15 26 21 63 24 27 1 59 1 70 -2 11 -2 28 -4 38 -3z m-279 -13
c4 -12 -4 -15 -42 -14 -26 1 -38 3 -27 6 11 3 24 9 30 14 14 14 32 11 39 -6z
m382 -86 c3 -5 -193 -9 -453 -9 -252 0 -452 4 -446 8 17 11 892 12 899 1z m62
-6 c-10 -2 -26 -2 -35 0 -10 3 -2 5 17 5 19 0 27 -2 18 -5z m-1247 -644 c31
-42 37 -55 25 -57 -23 -5 -20 -22 4 -22 11 0 20 -5 20 -10 0 -6 10 -15 23 -20
23 -9 -48 -13 -183 -10 -76 2 -101 13 -45 20 36 5 40 8 47 44 11 54 53 125 66
112 1 -2 21 -28 43 -57z m1556 -101 c-2 -13 -4 -5 -4 17 -1 22 1 32 4 23 2
-10 2 -28 0 -40z m1405 -351 c-15 -23 -34 -61 -41 -85 -8 -23 -20 -47 -27 -53
-10 -8 -11 -15 -1 -30 9 -15 8 -22 -6 -36 -15 -16 -17 -16 -17 -1 0 24 -19 33
-27 13 -3 -10 -1 -20 6 -24 8 -5 7 -12 -4 -27 -13 -17 -14 -17 -15 -1 0 9 -5
17 -11 17 -16 0 -118 -83 -118 -97 -1 -7 -10 -13 -21 -13 -11 0 -20 -5 -20
-11 0 -6 -9 -8 -20 -4 -13 4 -34 -2 -57 -15 -32 -19 -38 -20 -51 -6 -14 13
-12 19 11 50 15 19 27 46 27 60 0 14 5 26 10 26 6 0 10 6 10 13 0 6 32 43 70
80 67 66 82 87 60 87 -5 0 -10 7 -10 17 0 15 1 15 18 0 24 -22 29 -21 35 3 3
11 13 20 22 20 9 0 31 11 49 25 23 18 35 22 43 14 16 -16 36 0 30 22 -4 15 -1
18 17 13 14 -3 28 1 36 11 13 15 15 15 22 -5 6 -16 1 -33 -20 -63z m-2862 -12
c0 -8 -4 -15 -10 -15 -5 0 -10 7 -10 15 0 8 5 15 10 15 6 0 10 -7 10 -15z
m588 -49 c107 -85 336 -206 391 -206 10 0 21 -4 27 -9 5 -5 22 -11 38 -13 16
-2 31 -9 34 -15 14 -44 -251 -46 -313 -3 -24 16 -107 41 -120 36 -17 -6 -20
-42 -5 -51 13 -8 13 -42 0 -50 -20 -12 -248 40 -273 62 -27 25 -40 86 -27 132
13 49 124 168 158 170 14 0 49 -19 90 -53z m-525 18 c23 -8 22 -19 -5 -32
l-23 -11 23 0 c13 -1 31 3 40 8 9 4 37 11 62 14 34 5 39 4 22 -3 -28 -12 -19
-32 11 -29 48 3 87 -2 87 -11 0 -5 -7 -10 -15 -10 -8 0 -15 -7 -15 -15 0 -9 7
-18 15 -21 8 -4 15 -11 15 -16 0 -6 -7 -8 -15 -4 -20 7 -19 -3 3 -50 31 -66
56 -103 77 -112 18 -9 19 -10 2 -17 -11 -5 -23 0 -35 13 -15 17 -20 18 -42 6
-23 -13 -23 -14 -4 -14 23 0 61 -36 50 -47 -4 -4 -16 -2 -27 5 -13 9 -25 9
-38 3 -21 -12 -32 -5 -24 15 3 8 -1 14 -11 14 -10 0 -13 -6 -10 -15 9 -22 -15
-18 -65 10 -48 28 -70 33 -52 11 9 -11 8 -15 -5 -20 -10 -4 -22 1 -30 11 -17
24 -37 118 -29 142 3 11 1 22 -5 26 -6 4 -10 -6 -10 -24 0 -17 -4 -31 -10 -31
-5 0 -10 10 -10 23 0 12 -7 33 -16 45 -27 39 -21 80 17 117 19 18 39 31 44 29
6 -2 18 -7 28 -10z m2876 -81 c0 -10 -9 -31 -20 -48 -23 -36 -23 -37 -39 -100
-7 -27 -14 -57 -17 -66 -3 -11 4 -18 21 -23 19 -5 26 -13 26 -31 0 -33 -12
-31 -33 5 -21 35 -23 35 -66 14 -18 -9 -51 -19 -74 -22 -23 -3 -59 -16 -80
-29 -21 -13 -42 -23 -47 -21 -13 4 52 106 81 125 13 10 33 28 43 41 11 13 26
29 33 36 28 22 105 91 127 113 25 27 46 30 45 6z m-2529 -263 c0 -13 -11 -13
-30 0 -12 8 -11 10 8 10 12 0 22 -4 22 -10z m363 -7 c16 -3 31 -12 34 -19 3
-9 13 -12 29 -8 30 8 32 -11 4 -28 -11 -7 -20 -18 -20 -25 0 -7 -20 -24 -44
-38 -24 -14 -47 -32 -50 -40 -3 -8 -12 -15 -20 -15 -18 0 -30 81 -21 145 7 44
9 47 34 40 14 -3 39 -9 54 -12z m-133 -68 c0 -8 -4 -15 -10 -15 -5 0 -10 7
-10 15 0 8 5 15 10 15 6 0 10 -7 10 -15z"/>
<path d="M4240 1860 c0 -5 7 -10 15 -10 8 0 15 5 15 10 0 6 -7 10 -15 10 -8 0
-15 -4 -15 -10z"/>
<path d="M2781 3956 c-9 -11 -8 -15 5 -20 20 -8 39 7 30 23 -10 15 -21 14 -35
-3z"/>
<path d="M2578 3943 c18 -2 45 -2 60 0 15 2 0 4 -33 4 -33 0 -45 -2 -27 -4z"/>
<path d="M2798 3861 c-1 -32 -1 -119 2 -192 4 -111 6 -125 12 -79 10 80 9 318
-1 325 -5 3 -11 -21 -13 -54z"/>
<path d="M2520 3820 c0 -56 3 -72 16 -77 22 -8 34 14 34 69 0 59 -7 78 -31 78
-17 0 -19 -8 -19 -70z"/>
<path d="M2677 3844 c-6 -57 4 -98 26 -102 15 -3 17 7 17 72 0 68 -2 76 -19
76 -15 0 -19 -10 -24 -46z"/>
<path d="M3348 3631 c-76 -8 -95 -26 -35 -35 24 -4 51 -4 59 -1 22 8 29 -19
29 -97 -1 -35 1 -76 3 -93 2 -16 5 -58 5 -93 1 -94 17 -66 20 35 7 254 6 283
-7 288 -8 3 -14 4 -15 4 -1 -1 -28 -5 -59 -8z"/>
<path d="M3198 3623 c-16 -2 -28 -8 -28 -13 0 -11 57 -18 71 -9 12 7 4 30 -9
28 -4 -1 -19 -4 -34 -6z"/>
<path d="M2942 3516 c1 -56 3 -76 5 -46 5 93 12 117 33 123 31 8 24 26 -10 25
l-30 -1 2 -101z"/>
<path d="M3095 3466 c-8 -53 -28 -61 -44 -16 -10 29 -21 37 -34 23 -4 -3 -2
-12 4 -19 7 -8 7 -14 -1 -19 -8 -5 -6 -15 5 -32 12 -18 14 -28 6 -36 -14 -14
-14 -67 -1 -67 6 0 21 12 34 27 l23 26 7 -26 c7 -28 31 -37 38 -15 3 7 1 31
-3 53 -4 22 -4 44 -1 50 9 13 4 39 -13 71 -13 26 -13 26 -20 -20z"/>
<path d="M3307 3459 c-16 -40 -37 -46 -37 -11 0 9 -5 24 -10 32 -8 12 -12 13
-19 2 -11 -18 -11 -171 0 -178 5 -3 16 4 26 16 23 27 31 25 44 -7 l10 -27 21
22 c17 17 19 24 9 35 -12 15 -10 94 2 114 4 6 -2 18 -12 27 -17 15 -19 14 -34
-25z"/>
<path d="M3455 3478 c-3 -13 -1 -43 4 -68 l9 -45 1 68 c1 68 -4 85 -14 45z"/>
<path d="M2937 3264 c-5 -124 5 -195 33 -246 6 -10 10 -27 10 -37 0 -11 4 -22
9 -25 11 -7 51 -88 51 -104 0 -7 7 -12 15 -12 8 0 15 -6 15 -13 0 -7 25 -37
56 -67 l55 -55 25 30 c13 17 24 33 24 38 0 14 -29 7 -38 -9 -8 -14 -14 -11
-43 21 -19 21 -40 44 -48 52 -47 49 -101 148 -111 206 -6 34 -15 82 -21 107
-5 25 -11 88 -14 140 -3 52 -7 96 -9 97 -2 2 -6 -54 -9 -123z"/>
<path d="M3144 3157 c-16 -38 -20 -65 -17 -103 4 -33 1 -54 -6 -59 -9 -5 -9
-10 0 -21 20 -24 37 -16 50 24 10 29 14 33 17 17 11 -51 22 -68 36 -55 21 17
20 144 -2 184 l-17 31 -5 -52 c-10 -98 -35 -74 -28 27 2 33 2 60 -1 60 -3 0
-16 -24 -27 -53z"/>
<path d="M3406 3168 c-2 -7 -9 -38 -15 -68 -24 -115 -29 -129 -49 -155 -25
-31 -31 -65 -9 -46 18 14 52 86 65 136 14 56 25 145 18 145 -4 0 -8 -6 -10
-12z"/>
<path d="M2494 3077 c-5 -8 -22 -17 -39 -19 -36 -4 -45 -31 -19 -59 17 -19 17
-19 -14 -17 -35 3 -44 -11 -16 -27 20 -11 34 -25 34 -37 0 -12 -31 -38 -46
-38 -27 0 -65 51 -62 85 1 17 -2 36 -6 43 -8 14 -104 16 -125 3 -8 -5 -17 -30
-21 -56 -9 -60 8 -81 62 -76 9 1 33 -8 52 -21 48 -31 48 -60 0 -77 -30 -11
-38 -11 -53 3 -26 24 -61 19 -93 -11 -39 -37 -35 -62 16 -100 50 -38 55 -39
87 -14 17 12 50 20 107 25 l83 7 42 -35 c30 -24 57 -36 97 -43 36 -5 55 -13
55 -22 0 -17 -16 -26 -75 -43 -42 -12 -45 -15 -52 -58 -13 -79 -18 -90 -38
-90 -10 0 -22 5 -25 10 -13 22 -54 10 -79 -23 -15 -19 -26 -39 -26 -45 0 -11
65 -65 90 -74 21 -8 60 9 60 26 0 7 32 36 71 62 61 42 69 51 64 72 -6 25 9 52
30 52 6 0 38 -25 69 -55 60 -58 69 -87 28 -93 -34 -5 -44 -34 -25 -73 9 -19
21 -38 27 -42 10 -7 80 -2 118 9 23 7 32 39 17 65 -6 12 -11 51 -10 86 1 59
-1 64 -24 75 -28 13 -32 34 -11 64 8 11 16 33 18 49 2 23 11 34 39 47 43 20
54 34 63 77 5 28 2 37 -25 62 -17 16 -35 29 -40 29 -19 0 -8 16 21 28 35 16
43 54 10 45 -30 -8 -26 31 6 56 22 17 25 24 17 48 -10 31 -62 62 -104 63 -15
0 -43 -13 -65 -31 l-39 -31 -3 39 c-2 21 -12 49 -22 63 -17 23 -26 25 -118 28
-81 3 -102 1 -108 -11z m26 -82 c0 -8 -7 -15 -15 -15 -8 0 -15 7 -15 15 0 8 7
15 15 15 8 0 15 -7 15 -15z m100 -12 c0 -3 -6 -14 -14 -22 -8 -9 -18 -28 -21
-43 -7 -27 -7 -28 39 -24 25 2 46 -1 46 -5 0 -5 -4 -9 -10 -9 -5 0 -10 -6 -10
-14 0 -8 -7 -17 -16 -20 -12 -5 -15 -14 -11 -35 3 -16 1 -33 -6 -40 -9 -9 -8
-14 3 -22 11 -8 7 -9 -15 -4 -16 4 -37 13 -46 21 -8 8 -21 14 -27 14 -6 0 -9
7 -6 15 4 9 0 15 -8 15 -18 0 -22 -61 -5 -72 6 -4 9 -10 5 -13 -10 -10 -65 22
-72 42 -3 10 -14 32 -25 49 -26 43 -12 68 22 36 23 -22 57 -22 57 0 0 6 7 8
15 4 10 -3 15 1 15 13 0 10 -7 21 -15 25 -22 8 -18 25 8 37 41 19 72 39 60 39
-7 0 -13 5 -13 10 0 6 11 10 25 10 14 0 25 -3 25 -7z m267 -19 c6 -17 -7 -45
-43 -89 l-24 -30 -20 25 c-24 30 -26 73 -4 94 20 21 83 21 91 0z m-131 -61
c13 -54 45 -90 136 -155 21 -16 38 -37 38 -47 0 -28 -47 -61 -85 -61 -79 0
-173 73 -120 94 8 3 15 13 15 22 0 12 -6 15 -24 10 -31 -8 -59 18 -50 46 9 29
66 118 75 118 5 0 12 -12 15 -27z m-276 -10 c0 -5 -4 -15 -10 -23 -11 -18 -25
-7 -17 15 6 15 27 21 27 8z m170 -221 c0 -22 -23 -30 -54 -19 l-31 12 35 6
c19 3 38 7 43 8 4 0 7 -3 7 -7z"/>
<path d="M3436 3004 c-4 -10 -1 -14 6 -12 15 5 23 28 10 28 -5 0 -13 -7 -16
-16z"/>
<path d="M4180 2987 c0 -9 -3 -22 -6 -30 -4 -12 3 -15 30 -15 25 0 34 4 29 12
-4 6 -8 18 -8 26 0 20 -45 27 -45 7z"/>
<path d="M3292 2868 c-6 -6 -12 -19 -12 -27 0 -13 2 -13 16 1 9 9 15 21 13 27
-3 9 -8 8 -17 -1z"/>
<path d="M3936 2834 c-4 -11 -1 -14 11 -12 9 2 18 9 21 16 6 18 -25 15 -32 -4z"/>
<path d="M3708 2823 c12 -2 32 -2 45 0 12 2 2 4 -23 4 -25 0 -35 -2 -22 -4z"/>
<path d="M3836 2772 c-11 -17 -10 -142 1 -153 22 -22 33 2 33 76 0 55 -4 74
-15 78 -8 4 -16 3 -19 -1z"/>
<path d="M3667 2763 c-4 -3 -7 -37 -7 -74 0 -67 11 -87 38 -70 14 8 24 94 16
127 -6 23 -32 32 -47 17z"/>
<path d="M3575 2617 c-7 -28 0 -185 8 -194 4 -3 7 44 7 105 0 110 -4 134 -15
89z"/>
<path d="M3721 2507 c-20 -22 -22 -33 -20 -130 l1 -107 72 0 71 0 -3 112 c-3
100 -6 115 -24 131 -29 24 -70 21 -97 -6z"/>
<path d="M4245 2300 c-10 -11 -13 -20 -8 -20 13 0 38 29 31 35 -3 3 -13 -4
-23 -15z"/>
<path d="M1005 2040 c-29 -46 -78 -80 -115 -80 -85 0 -232 -90 -245 -150 -10
-44 17 -79 149 -200 64 -58 116 -112 116 -122 0 -11 -12 -18 -38 -23 -61 -10
-102 -40 -102 -74 0 -85 304 -335 625 -513 191 -106 303 -156 509 -229 60 -22
123 -46 139 -54 17 -8 36 -15 44 -15 7 0 21 -4 31 -9 9 -6 69 -26 132 -45 113
-34 275 -61 535 -87 238 -24 821 -12 970 21 144 31 203 46 223 56 l24 12 -31
7 c-17 3 -36 3 -43 -1 -7 -5 -33 -12 -58 -16 -25 -4 -67 -12 -95 -18 -27 -6
-90 -15 -139 -20 -49 -5 -95 -11 -103 -14 -8 -3 -150 -6 -316 -7 -307 -1 -496
10 -667 38 -52 9 -115 18 -140 20 -25 3 -49 9 -54 14 -6 5 -25 9 -44 9 -18 0
-42 5 -52 10 -18 10 -18 13 -4 52 18 51 79 173 128 253 20 33 36 63 36 67 0 4
-26 12 -57 18 -171 33 -316 88 -498 190 -22 12 -65 36 -95 52 -30 17 -85 51
-122 74 -37 24 -86 54 -109 65 -36 19 -40 25 -34 48 3 14 9 49 12 78 5 50 4
52 -38 95 -24 23 -95 73 -157 110 -62 37 -151 96 -198 130 l-85 63 5 40 c3 22
10 71 16 108 6 38 8 73 4 78 -12 19 -35 7 -59 -31z m-41 -194 c10 -14 24 -22
32 -19 10 4 14 -4 14 -28 0 -43 5 -48 63 -84 26 -17 45 -35 42 -42 -2 -8 4
-13 15 -13 10 0 22 -5 25 -10 4 -6 23 -17 43 -26 l36 -15 -32 -19 c-18 -11
-42 -20 -54 -20 -12 0 -18 -3 -15 -7 4 -4 32 -6 62 -4 50 2 55 0 69 -26 8 -15
39 -46 67 -68 72 -55 155 -141 169 -176 9 -21 19 -29 36 -29 25 0 33 -24 12
-34 -7 -3 2 -3 20 0 24 4 32 2 32 -9 0 -8 14 -20 30 -26 17 -5 30 -15 30 -20
0 -6 6 -11 13 -11 19 0 72 -29 167 -91 47 -31 106 -64 133 -74 26 -10 47 -22
47 -26 0 -5 9 -9 19 -9 11 0 23 -4 26 -10 3 -5 14 -10 24 -10 15 0 111 -41
161 -69 8 -4 16 -20 18 -35 2 -14 10 -26 18 -26 16 0 18 -9 5 -29 -5 -7 -13
-11 -19 -7 -5 3 -12 -12 -16 -35 -4 -25 -11 -39 -19 -36 -6 2 -20 -5 -31 -15
-11 -10 -30 -18 -42 -18 -12 0 -27 -7 -34 -15 -18 -22 -30 -18 -30 9 0 19 -8
27 -35 36 -19 6 -35 17 -35 24 0 6 25 41 55 78 58 70 64 82 40 92 -26 9 -39
-3 -85 -82 -43 -73 -66 -92 -64 -54 1 9 12 52 25 94 34 114 14 125 -77 41 -80
-73 -134 -108 -134 -85 0 4 29 46 65 95 36 48 65 89 65 92 0 3 -11 5 -24 5
-19 0 -31 -12 -55 -55 -42 -74 -55 -64 -46 36 7 76 6 79 -14 79 -12 0 -25 -8
-28 -17 -7 -19 -85 -136 -109 -164 -16 -18 -9 -29 17 -29 10 0 25 14 34 32 22
47 52 84 61 75 4 -4 3 -40 -4 -79 -12 -79 -10 -88 18 -88 10 0 20 -7 24 -15 3
-9 0 -15 -8 -15 -26 0 -75 22 -80 36 -3 8 -13 14 -23 14 -10 0 -42 11 -71 25
-30 14 -63 25 -74 25 -14 0 -18 5 -14 15 4 11 -2 15 -20 15 -13 0 -27 7 -30
15 -4 8 -12 15 -19 15 -7 0 -24 6 -38 13 -21 11 -24 16 -14 27 10 10 8 12 -7
6 -23 -8 -76 14 -76 31 0 7 -9 13 -20 13 -11 0 -20 4 -20 10 0 5 -26 27 -57
47 -32 21 -61 43 -66 50 -4 7 -14 10 -22 7 -9 -4 -15 0 -15 10 0 9 -8 16 -20
16 -11 0 -20 7 -20 15 0 8 -17 23 -38 34 -51 26 -66 45 -58 76 6 23 5 25 -13
16 -28 -15 -31 -14 -31 12 0 15 -9 28 -22 35 -13 6 -17 11 -10 11 13 1 17 31
5 31 -5 0 -9 16 -10 35 -1 20 3 35 9 35 6 0 26 11 44 25 18 14 36 25 41 25 4
0 17 8 28 16 19 15 19 15 -8 9 -36 -9 -77 2 -77 20 0 8 -7 15 -15 15 -8 0 -15
9 -15 20 0 11 -6 20 -14 20 -9 0 -12 7 -9 21 4 12 -2 27 -13 39 -61 60 -85 93
-80 106 3 9 6 22 6 30 0 18 69 61 106 67 16 2 31 5 34 6 3 0 13 -10 24 -23z
m1006 -985 c0 -20 -13 -41 -25 -41 -18 0 -28 17 -21 35 6 16 46 21 46 6z m-65
-63 c28 -12 33 -42 11 -70 -16 -21 -23 -22 -59 -5 -31 14 -34 29 -9 62 20 28
23 29 57 13z"/>
<path d="M1102 1339 c-78 -67 -96 -96 -66 -106 7 -2 25 7 40 21 l29 25 27 -26
c26 -25 26 -27 12 -55 -15 -29 -12 -48 8 -48 7 0 22 -9 34 -21 l22 -21 21 46
c22 50 31 55 56 29 13 -13 16 -27 11 -61 -4 -28 -2 -50 5 -58 18 -22 29 -16
29 15 0 47 12 91 25 91 19 0 55 45 55 69 0 25 -59 86 -91 94 -15 4 -27 -9 -56
-56 -20 -34 -47 -75 -60 -90 -20 -25 -23 -26 -23 -9 0 11 9 61 21 112 33 144
21 151 -99 49z m72 -14 c7 -20 -3 -45 -19 -45 -18 0 -27 30 -14 46 15 18 25
18 33 -1z m195 -69 c15 -18 -2 -56 -25 -56 -48 0 -73 41 -44 70 22 22 43 17
69 -14z"/>
<path d="M1441 1194 c-28 -36 -26 -53 10 -103 24 -34 28 -45 18 -57 -14 -17
-43 -18 -57 -1 -5 6 -13 27 -17 45 -8 38 -26 38 -36 -1 -13 -49 27 -97 80 -97
30 0 71 39 71 67 0 14 -12 41 -26 60 -30 39 -28 67 4 71 18 3 26 -4 38 -34 15
-36 17 -37 30 -19 17 23 9 54 -20 77 -32 26 -71 23 -95 -8z"/>
<path d="M1575 1078 c-20 -35 -48 -75 -61 -89 -14 -14 -22 -32 -19 -40 8 -19
91 -79 109 -79 42 0 26 44 -25 71 -22 11 -39 22 -39 26 0 4 10 17 21 29 22 23
22 23 47 4 13 -11 33 -20 43 -20 31 0 22 25 -16 46 -37 20 -42 40 -13 58 13 8
25 6 47 -7 38 -22 71 -22 71 1 -1 18 -80 62 -112 62 -10 0 -32 -25 -53 -62z"/>
<path d="M5141 2055 c-11 -14 -23 -39 -26 -56 -9 -41 12 -127 42 -167 13 -18
23 -37 21 -42 -6 -19 -163 -123 -241 -160 -61 -30 -89 -49 -109 -79 -35 -50
-35 -66 1 -123 32 -50 31 -53 -19 -83 -9 -5 -53 -34 -96 -64 -43 -29 -110 -70
-149 -90 -38 -21 -79 -43 -90 -49 -110 -63 -427 -180 -642 -238 -8 -2 0 -22
23 -55 41 -62 108 -193 136 -267 20 -52 21 -54 52 -48 48 9 237 66 273 82 17
8 35 14 40 14 7 0 96 36 200 82 24 10 45 18 47 18 12 0 176 83 182 91 3 6 17
15 31 20 34 13 364 240 486 334 99 77 157 142 157 177 0 11 -13 33 -30 48 -16
15 -30 35 -30 43 0 8 58 69 129 135 130 123 168 175 157 217 -7 27 -64 75
-155 131 -62 37 -67 39 -145 37 -62 -1 -95 3 -141 20 -60 22 -60 23 -57 60 3
45 -16 50 -47 12z m271 -186 c2 -6 18 -12 35 -13 34 -2 63 -30 84 -79 11 -26
9 -31 -18 -60 -17 -18 -29 -37 -26 -43 2 -7 -9 -21 -24 -32 -15 -11 -44 -52
-63 -91 l-35 -71 -37 6 c-40 6 -56 -13 -20 -23 10 -2 26 -17 35 -32 13 -23 14
-30 3 -42 -7 -8 -18 -33 -25 -56 -6 -24 -16 -43 -20 -43 -5 0 -12 -11 -15 -25
-8 -30 -71 -95 -92 -95 -11 0 -14 -6 -10 -16 4 -11 1 -14 -12 -12 -22 4 -78
-32 -120 -76 -17 -19 -52 -42 -77 -52 -25 -9 -45 -22 -45 -29 0 -6 -18 -18
-40 -25 -22 -7 -40 -19 -40 -27 0 -7 -6 -13 -14 -13 -8 0 -29 -12 -46 -26 -17
-15 -33 -24 -37 -21 -3 3 -22 -5 -42 -18 -19 -14 -45 -25 -56 -25 -11 0 -29
-9 -38 -21 -20 -23 -44 -21 -39 4 1 9 -7 31 -18 49 -27 45 -25 55 10 63 24 5
38 1 71 -24 34 -24 46 -28 61 -20 30 16 17 40 -32 59 -45 18 -49 26 -36 66 4
14 -1 30 -15 49 -20 24 -27 27 -64 22 -26 -2 -58 -16 -80 -32 -30 -24 -35 -33
-30 -54 4 -14 13 -33 20 -41 22 -24 83 -164 78 -177 -8 -22 -32 -15 -26 7 8
32 -24 36 -73 9 -35 -18 -48 -21 -62 -13 -31 20 -25 40 23 65 25 13 45 30 45
36 0 20 -39 15 -77 -8 -30 -19 -36 -20 -49 -7 -22 22 -8 44 42 67 30 15 44 27
44 41 0 26 -8 25 -75 -9 -91 -47 -89 -39 -34 -145 27 -52 49 -107 49 -123 0
-20 -3 -24 -9 -14 -8 12 -14 12 -43 1 -18 -8 -35 -17 -38 -20 -3 -3 -20 11
-38 31 l-32 37 37 19 c40 21 57 53 28 53 -8 0 -31 -6 -50 -14 -28 -12 -37 -12
-51 -1 -16 11 -16 15 -4 29 7 10 28 23 47 31 33 14 44 40 21 47 -7 3 -33 -3
-58 -13 -25 -10 -53 -20 -62 -23 -24 -7 -23 -26 5 -67 30 -46 63 -109 71 -136
6 -20 4 -22 -26 -19 -32 3 -45 7 -95 27 -13 4 -28 6 -35 4 -20 -8 -48 51 -42
85 4 18 1 37 -9 50 -14 20 -14 24 1 41 9 10 24 19 34 19 10 0 18 5 18 10 0 6
9 10 19 10 10 0 21 7 25 15 3 8 12 15 19 15 8 0 28 7 46 16 17 9 38 13 46 10
9 -3 15 1 15 9 0 10 10 15 29 15 16 0 34 7 42 16 7 8 21 13 31 10 11 -2 22 2
25 10 3 8 9 11 15 8 5 -3 18 3 29 15 11 12 24 21 29 21 21 0 121 52 127 65 3
8 10 12 15 9 13 -8 88 28 88 43 0 6 14 16 30 22 17 5 30 15 30 20 0 6 9 11 20
11 32 0 23 -26 -16 -45 -50 -23 -58 -52 -27 -93 13 -18 35 -56 48 -85 25 -57
48 -83 65 -72 16 10 12 23 -15 59 -49 64 1 88 84 41 41 -24 81 -26 81 -5 0 13
-50 50 -78 57 -22 5 -23 9 -17 50 8 56 -12 83 -61 83 -47 0 -48 22 0 45 22 11
45 30 52 42 17 36 47 64 60 59 8 -3 11 0 8 9 -3 7 10 33 28 57 18 24 41 62 52
85 21 47 51 64 116 65 l42 0 -41 27 c-52 33 -52 45 -1 37 35 -5 54 4 33 17 -5
2 -2 2 5 1 7 -2 15 3 19 12 3 8 18 21 34 30 16 8 29 21 29 29 0 8 5 15 10 15
6 0 10 7 10 15 0 20 -17 19 -30 -2 -6 -10 -10 -13 -8 -8 7 22 43 75 51 75 4 0
18 10 30 23 37 38 140 63 149 36z m-618 -735 c7 -18 -46 -74 -70 -74 -17 0
-36 34 -28 53 12 33 87 49 98 21z m-198 -119 c8 -19 -9 -40 -46 -59 -26 -12
-31 -12 -45 4 -9 10 -13 24 -9 34 13 33 90 49 100 21z m-91 -276 c11 -16 2
-17 -25 -2 -24 12 -24 13 -3 13 12 0 25 -5 28 -11z"/>
<path d="M5036 1381 c-4 -6 15 -55 41 -110 42 -87 51 -100 73 -101 15 0 30 8
38 20 7 11 17 20 23 20 13 0 48 41 49 57 0 6 6 13 13 16 7 2 8 8 3 13 -5 5
-11 4 -13 -3 -3 -7 -14 -13 -25 -13 -11 0 -33 -11 -50 -25 -16 -14 -33 -25
-37 -25 -4 0 -20 28 -35 63 -16 34 -32 69 -36 77 -9 18 -36 25 -44 11z"/>
<path d="M4940 1322 c-35 -16 -59 -39 -73 -75 -14 -33 -14 -42 -1 -86 19 -64
61 -101 114 -101 33 0 43 6 70 41 29 36 32 45 26 87 -8 57 -48 117 -88 131
-17 6 -31 11 -32 10 -1 0 -8 -3 -16 -7z m51 -52 c22 -12 49 -60 49 -88 0 -33
-38 -72 -70 -72 -59 0 -91 91 -49 144 22 28 39 32 70 16z"/>
<path d="M2470 894 c0 -11 8 -15 28 -13 15 1 41 -4 57 -11 17 -7 44 -12 60
-12 17 1 63 -6 103 -14 41 -9 76 -14 78 -11 3 3 31 -1 62 -8 31 -7 80 -12 107
-10 28 2 182 6 344 10 162 3 303 11 312 16 10 5 39 10 66 10 66 2 106 12 111
28 4 11 -10 12 -69 8 -41 -3 -95 -10 -121 -16 -47 -10 -594 -19 -723 -12 -38
2 -135 15 -215 28 -174 28 -200 29 -200 7z"/>
<path d="M2497 807 c-3 -8 -6 -66 -6 -129 -1 -98 1 -117 15 -122 28 -11 36 4
31 53 -3 25 -2 55 2 65 5 14 12 0 27 -55 18 -66 23 -74 46 -77 22 -3 26 1 33
35 4 20 14 51 23 68 l17 30 3 -72 c3 -65 5 -73 22 -73 19 0 20 8 22 110 0 61
1 116 2 123 1 7 -11 12 -28 12 -26 0 -30 -5 -47 -57 -22 -70 -37 -100 -48 -94
-5 3 -14 27 -21 53 -7 27 -17 52 -21 58 -5 5 -9 19 -9 31 0 13 -10 30 -22 38
-27 19 -34 20 -41 3z"/>
<path d="M2776 763 c-11 -39 -10 -223 2 -235 23 -23 30 6 34 127 3 105 1 120
-14 123 -9 2 -19 -5 -22 -15z"/>
<path d="M2863 772 c-6 -4 -13 -60 -15 -125 -6 -136 -9 -132 89 -132 51 0 58
2 58 20 0 17 -8 21 -50 25 l-50 5 2 101 c2 78 0 103 -10 107 -8 3 -18 2 -24
-1z"/>
<path d="M3052 767 c-6 -6 -14 -65 -18 -130 l-7 -119 29 4 29 3 3 95 c1 52 4
100 6 105 2 6 22 9 46 7 l43 -4 -7 -103 c-7 -105 -3 -121 28 -109 13 5 16 23
16 98 0 50 4 96 8 103 4 6 23 13 42 15 23 2 36 9 38 20 3 14 -9 17 -90 20 -51
2 -98 -1 -105 -5 -6 -5 -21 -4 -31 2 -15 8 -23 7 -30 -2z"/>
<path d="M3520 765 c-6 -8 -10 -18 -7 -22 8 -14 -18 -188 -28 -188 -5 0 -26
47 -45 105 -30 87 -39 106 -57 108 -17 3 -26 -5 -36 -30 -8 -18 -34 -72 -57
-121 -33 -66 -41 -90 -32 -99 9 -9 16 -7 32 7 11 10 20 24 20 30 0 19 21 32
61 38 35 5 37 4 52 -34 15 -37 39 -51 52 -29 4 7 13 6 27 -1 28 -15 48 11 48
63 0 67 53 60 90 -12 23 -45 32 -52 54 -44 24 9 19 38 -10 74 l-27 31 37 38
c40 41 44 60 18 84 -25 23 -173 24 -192 2z m145 -36 c13 -20 -26 -49 -67 -49
-42 0 -59 20 -38 45 14 17 95 21 105 4z m-271 -54 c8 -32 1 -45 -25 -45 -22 0
-25 21 -7 50 17 27 25 25 32 -5z"/>
</g>
</svg>
